<svg width="40" height="40" viewBox="0 0 40 40" fill="none" xmlns="http://www.w3.org/2000/svg">
<path d="M25.6549 12.6758H14.8519C14.0031 12.6758 13.3086 13.3703 13.3086 14.2191V25.0221C13.3086 25.8717 14.0031 26.5654 14.8519 26.5654H25.6549C26.5037 26.5654 27.1982 25.8717 27.1982 25.0221V14.2191C27.1982 13.3703 26.5037 12.6758 25.6549 12.6758ZM20.241 23.8824C21.3745 23.8822 22.4614 23.4318 23.2628 22.6302C24.0642 21.8287 24.5144 20.7417 24.5144 19.6082C24.5144 19.3474 24.4812 19.0959 24.4349 18.8489H25.6549V24.4171C25.6549 24.4872 25.6411 24.5567 25.6142 24.6214C25.5873 24.6862 25.5478 24.745 25.4981 24.7944C25.4485 24.8439 25.3895 24.8831 25.3246 24.9097C25.2598 24.9363 25.1903 24.9499 25.1202 24.9496H15.3866C15.3165 24.9499 15.247 24.9363 15.1822 24.9097C15.1173 24.8831 15.0583 24.8439 15.0086 24.7944C14.959 24.745 14.9195 24.6862 14.8926 24.6214C14.8657 24.5567 14.8519 24.4872 14.8519 24.4171V18.8489H16.0472C16.0001 19.0959 15.9669 19.3474 15.9669 19.6082C15.9671 20.7417 16.4175 21.8288 17.219 22.6303C18.0205 23.4318 19.1075 23.8822 20.241 23.8824ZM17.5704 19.6082C17.5704 19.2575 17.6395 18.9102 17.7737 18.5862C17.9079 18.2622 18.1046 17.9678 18.3526 17.7198C18.6006 17.4718 18.895 17.2751 19.219 17.1409C19.543 17.0067 19.8903 16.9376 20.241 16.9376C20.5918 16.9376 20.939 17.0067 21.2631 17.1409C21.5871 17.2751 21.8815 17.4718 22.1295 17.7198C22.3775 17.9678 22.5742 18.2622 22.7084 18.5862C22.8426 18.9102 22.9117 19.2575 22.9117 19.6082C22.9117 20.3165 22.6303 20.9958 22.1295 21.4967C21.6286 21.9975 20.9494 22.2789 20.241 22.2789C19.5327 22.2789 18.8535 21.9975 18.3526 21.4967C17.8518 20.9958 17.5704 20.3165 17.5704 19.6082ZM25.1202 16.534H23.8739C23.7325 16.5336 23.5969 16.4772 23.4968 16.3772C23.3968 16.2771 23.3404 16.1415 23.34 16V14.7523C23.34 14.4575 23.5792 14.2191 23.8732 14.2191H25.1194C25.4157 14.2191 25.6549 14.4575 25.6549 14.7523V15.9993C25.6549 16.2933 25.4157 16.534 25.1202 16.534Z" fill="url(#paint0_linear_1549_6822)"/>
<rect x="0.5" y="0.5" width="39" height="39" rx="19.5" stroke="#78C0F7" stroke-opacity="0.3"/>
<defs>
<linearGradient id="paint0_linear_1549_6822" x1="15.4306" y1="14.6049" x2="25.1726" y2="24.7327" gradientUnits="userSpaceOnUse">
<stop stop-color="#8ECEFF"/>
<stop offset="1" stop-color="#53B3FC"/>
</linearGradient>
</defs>
</svg>
