<svg width="38" height="39" viewBox="0 0 38 39" fill="none" xmlns="http://www.w3.org/2000/svg">
<path d="M37.3287 28.5215V34.0215C37.3308 34.5321 37.2262 35.0375 37.0217 35.5053C36.8171 35.9731 36.5171 36.3931 36.1409 36.7382C35.7646 37.0834 35.3205 37.3462 34.8368 37.5098C34.3531 37.6733 33.8406 37.7341 33.3321 37.6881C27.6906 37.0752 22.2716 35.1474 17.5104 32.0598C13.0808 29.245 9.32518 25.4895 6.5104 21.0598C3.41203 16.277 1.48385 10.8316 0.882068 5.16481C0.836254 4.65784 0.896505 4.14687 1.05899 3.66446C1.22147 3.18204 1.48261 2.73874 1.82581 2.36279C2.169 1.98683 2.58671 1.68645 3.05235 1.48077C3.51799 1.27509 4.02136 1.16863 4.5304 1.16815H10.0304C10.9201 1.15939 11.7827 1.47446 12.4573 2.05462C13.1319 2.63479 13.5725 3.44047 13.6971 4.32148C13.9292 6.0816 14.3597 7.80981 14.9804 9.47315C15.2271 10.1293 15.2804 10.8425 15.1342 11.5281C14.988 12.2137 14.6483 12.843 14.1554 13.3415L11.8271 15.6698C14.4369 20.2596 18.2372 24.06 22.8271 26.6698L25.1554 24.3415C25.6539 23.8486 26.2832 23.5089 26.9688 23.3626C27.6544 23.2164 28.3675 23.2698 29.0237 23.5165C30.6871 24.1372 32.4153 24.5677 34.1754 24.7998C35.066 24.9254 35.8793 25.374 36.4607 26.0602C37.0421 26.7464 37.351 27.6224 37.3287 28.5215Z" stroke="#005AEC" stroke-linecap="round" stroke-linejoin="round"/>
</svg>
