<svg width="36" height="36" viewBox="0 0 36 36" fill="none" xmlns="http://www.w3.org/2000/svg">
<rect width="36" height="36" rx="4" fill="#40B3E0"/>
<g clip-path="url(#clip0_1602_6901)">
<path d="M26.7137 9.9566L23.6272 25.5179C23.6272 25.5179 23.1956 26.5971 22.0086 26.0791L14.8863 20.6186L12.2964 19.3669L7.93673 17.8992C7.93673 17.8992 7.26767 17.6619 7.20287 17.1439C7.13807 16.6259 7.95833 16.3453 7.95833 16.3453L25.2891 9.54674C25.2891 9.54674 26.7136 8.92088 26.7136 9.95687" fill="white"/>
<path d="M14.3394 25.3454C14.3394 25.3454 14.1315 25.3259 13.8723 24.5057C13.6135 23.6856 12.2969 19.3691 12.2969 19.3691L22.7645 12.7217C22.7645 12.7217 23.3689 12.3547 23.3473 12.7217C23.3473 12.7217 23.4552 12.7865 23.1313 13.0886C22.8077 13.3909 14.9085 20.4915 14.9085 20.4915" fill="#D2E5F1"/>
<path d="M17.6141 22.7142L14.7971 25.2828C14.7971 25.2828 14.5768 25.4499 14.3359 25.3451L14.8754 20.5742" fill="#B5CFE4"/>
</g>
<defs>
<clipPath id="clip0_1602_6901">
<rect width="21.6" height="21.6" fill="white" transform="translate(7.19922 7.19922)"/>
</clipPath>
</defs>
</svg>
