<svg width="66" height="66" viewBox="0 0 66 66" fill="none" xmlns="http://www.w3.org/2000/svg">
<g filter="url(#filter0_d_1549_6829)">
<rect x="15" y="15" width="36" height="36" rx="4" fill="#40B3E0"/>
<g clip-path="url(#clip0_1549_6829)">
<path d="M41.7137 24.9566L38.6272 40.5179C38.6272 40.5179 38.1956 41.5971 37.0086 41.0791L29.8863 35.6186L27.2964 34.3669L22.9367 32.8992C22.9367 32.8992 22.2677 32.6619 22.2029 32.1439C22.1381 31.6259 22.9583 31.3453 22.9583 31.3453L40.2891 24.5467C40.2891 24.5467 41.7136 23.9209 41.7136 24.9569" fill="white"/>
<path d="M29.3394 40.3454C29.3394 40.3454 29.1315 40.3259 28.8723 39.5057C28.6135 38.6856 27.2969 34.3691 27.2969 34.3691L37.7645 27.7217C37.7645 27.7217 38.3689 27.3547 38.3473 27.7217C38.3473 27.7217 38.4552 27.7865 38.1313 28.0886C37.8077 28.3909 29.9085 35.4915 29.9085 35.4915" fill="#D2E5F1"/>
<path d="M32.6141 37.7142L29.7971 40.2828C29.7971 40.2828 29.5768 40.4499 29.3359 40.3451L29.8754 35.5742" fill="#B5CFE4"/>
</g>
</g>
<defs>
<filter id="filter0_d_1549_6829" x="0" y="0" width="66" height="66" filterUnits="userSpaceOnUse" color-interpolation-filters="sRGB">
<feFlood flood-opacity="0" result="BackgroundImageFix"/>
<feColorMatrix in="SourceAlpha" type="matrix" values="0 0 0 0 0 0 0 0 0 0 0 0 0 0 0 0 0 0 127 0" result="hardAlpha"/>
<feOffset/>
<feGaussianBlur stdDeviation="7.5"/>
<feColorMatrix type="matrix" values="0 0 0 0 0.25098 0 0 0 0 0.701961 0 0 0 0 0.878431 0 0 0 1 0"/>
<feBlend mode="normal" in2="BackgroundImageFix" result="effect1_dropShadow_1549_6829"/>
<feBlend mode="normal" in="SourceGraphic" in2="effect1_dropShadow_1549_6829" result="shape"/>
</filter>
<clipPath id="clip0_1549_6829">
<rect width="21.6" height="21.6" fill="white" transform="translate(22.1992 22.1992)"/>
</clipPath>
</defs>
</svg>
