<svg width="66" height="66" viewBox="0 0 66 66" fill="none" xmlns="http://www.w3.org/2000/svg">
<g filter="url(#filter0_d_1549_6834)">
<rect x="15" y="15" width="36" height="36" rx="4" fill="#005AEC"/>
<path d="M41.5076 36.7212C40.1781 36.7212 38.9017 36.5085 37.7104 36.115C37.5234 36.0554 37.3237 36.0477 37.1327 36.0926C36.9416 36.1376 36.7663 36.2335 36.6255 36.3702L34.2855 38.7102C31.266 37.1746 28.8118 34.7203 27.2761 31.7009L29.6161 29.3502C29.757 29.2166 29.8569 29.0455 29.904 28.8571C29.9511 28.6687 29.9435 28.4708 29.8821 28.2866C29.4786 27.0613 29.2739 25.7794 29.2758 24.4894C29.2758 23.9044 28.7971 23.4258 28.2121 23.4258H24.4894C23.9044 23.4258 23.4258 23.9044 23.4258 24.4894C23.4258 34.477 31.5201 42.5712 41.5076 42.5712C42.0926 42.5712 42.5712 42.0926 42.5712 41.5076V37.7849C42.5712 37.1999 42.0926 36.7212 41.5076 36.7212ZM40.444 32.9985H42.5712C42.5712 30.4597 41.5627 28.0248 39.7674 26.2296C37.9722 24.4343 35.5374 23.4258 32.9985 23.4258V25.5531C37.1148 25.5531 40.444 28.8822 40.444 32.9985ZM36.1894 32.9985H38.3167C38.3167 30.0629 35.9341 27.6803 32.9985 27.6803V29.8076C34.7641 29.8076 36.1894 31.2329 36.1894 32.9985Z" fill="white"/>
</g>
<defs>
<filter id="filter0_d_1549_6834" x="0" y="0" width="66" height="66" filterUnits="userSpaceOnUse" color-interpolation-filters="sRGB">
<feFlood flood-opacity="0" result="BackgroundImageFix"/>
<feColorMatrix in="SourceAlpha" type="matrix" values="0 0 0 0 0 0 0 0 0 0 0 0 0 0 0 0 0 0 127 0" result="hardAlpha"/>
<feOffset/>
<feGaussianBlur stdDeviation="7.5"/>
<feColorMatrix type="matrix" values="0 0 0 0 0 0 0 0 0 0.352941 0 0 0 0 0.92549 0 0 0 1 0"/>
<feBlend mode="normal" in2="BackgroundImageFix" result="effect1_dropShadow_1549_6834"/>
<feBlend mode="normal" in="SourceGraphic" in2="effect1_dropShadow_1549_6834" result="shape"/>
</filter>
</defs>
</svg>
