<svg width="36" height="36" viewBox="0 0 36 36" fill="none" xmlns="http://www.w3.org/2000/svg">
<rect width="36" height="36" rx="4" fill="#005AEC"/>
<path d="M26.5076 21.7212C25.1781 21.7212 23.9017 21.5085 22.7104 21.115C22.5234 21.0554 22.3237 21.0477 22.1327 21.0926C21.9416 21.1376 21.7663 21.2335 21.6255 21.3702L19.2855 23.7102C16.266 22.1746 13.8118 19.7203 12.2761 16.7009L14.6161 14.3502C14.757 14.2166 14.8569 14.0455 14.904 13.8571C14.9511 13.6687 14.9435 13.4708 14.8821 13.2866C14.4786 12.0613 14.2739 10.7794 14.2758 9.48942C14.2758 8.90442 13.7971 8.42578 13.2121 8.42578H9.48942C8.90442 8.42578 8.42578 8.90442 8.42578 9.48942C8.42578 19.477 16.5201 27.5712 26.5076 27.5712C27.0926 27.5712 27.5712 27.0926 27.5712 26.5076V22.7849C27.5712 22.1999 27.0926 21.7212 26.5076 21.7212ZM25.444 17.9985H27.5712C27.5712 15.4597 26.5627 13.0248 24.7674 11.2296C22.9722 9.43433 20.5374 8.42578 17.9985 8.42578V10.5531C22.1148 10.5531 25.444 13.8822 25.444 17.9985ZM21.1894 17.9985H23.3167C23.3167 15.0629 20.9341 12.6803 17.9985 12.6803V14.8076C19.7641 14.8076 21.1894 16.2329 21.1894 17.9985Z" fill="white"/>
</svg>
