<svg width="40" height="40" viewBox="0 0 40 40" fill="none" xmlns="http://www.w3.org/2000/svg">
<path d="M28.6864 15.8872C28.8099 15.4925 28.6864 15.2031 28.1024 15.2031H26.1678C25.6755 15.2031 25.4506 15.4535 25.327 15.7285C25.327 15.7285 24.3434 18.0362 22.9495 19.5325C22.4996 19.9679 22.2941 20.1054 22.0488 20.1054C21.9262 20.1054 21.748 19.9679 21.748 19.5732V15.8872C21.748 15.4136 21.606 15.2031 21.1958 15.2031H18.1557C17.8487 15.2031 17.6635 15.4221 17.6635 15.6309C17.6635 16.079 18.3604 16.1826 18.4319 17.4455V20.1851C18.4319 20.7852 18.3198 20.8947 18.0728 20.8947C17.4174 20.8947 15.8224 18.5785 14.8758 15.9271C14.6914 15.4119 14.5052 15.204 14.0112 15.204H12.0775C11.5243 15.204 11.4141 15.4543 11.4141 15.7293C11.4141 16.2233 12.0695 18.6676 14.4673 21.9004C16.0658 24.1079 18.3163 25.3047 20.3665 25.3047C21.5954 25.3047 21.7471 25.039 21.7471 24.5807V22.9121C21.7471 22.3808 21.8645 22.2739 22.2535 22.2739C22.5393 22.2739 23.0316 22.413 24.1793 23.4765C25.4903 24.7377 25.7073 25.3038 26.4439 25.3038H28.3777C28.9299 25.3038 29.206 25.0382 29.0472 24.5136C28.8734 23.9917 28.2471 23.2321 27.4161 22.3333C26.9644 21.8206 26.2895 21.269 26.084 20.9931C25.7973 20.6375 25.8802 20.4805 26.084 20.1648C26.0848 20.1656 28.4412 16.9727 28.6864 15.8872Z" fill="url(#paint0_linear_1549_6820)"/>
<rect x="0.5" y="0.5" width="39" height="39" rx="19.5" stroke="#78C0F7" stroke-opacity="0.3"/>
<defs>
<linearGradient id="paint0_linear_1549_6820" x1="14.1148" y1="16.6061" x2="20.1009" y2="27.4967" gradientUnits="userSpaceOnUse">
<stop stop-color="#8ECEFF"/>
<stop offset="1" stop-color="#53B3FC"/>
</linearGradient>
</defs>
</svg>
