<svg width="36" height="36" viewBox="0 0 36 36" fill="none" xmlns="http://www.w3.org/2000/svg">
<rect width="36" height="36" rx="4" fill="#00E676"/>
<g clip-path="url(#clip0_1602_6909)">
<path d="M25.5606 10.3394C24.5703 9.33995 23.391 8.54759 22.0915 8.00848C20.7919 7.46937 19.3981 7.1943 17.9911 7.19929C12.0957 7.19929 7.29102 12.0026 7.28562 17.8994C7.28562 19.788 7.77972 21.6254 8.71257 23.2521L7.19922 28.7993L12.8746 27.3116C14.4447 28.166 16.2036 28.6139 17.9911 28.6143H17.9965C23.8933 28.6143 28.6966 23.811 28.702 17.9088C28.7034 16.5022 28.4264 15.1092 27.887 13.8101C27.3476 12.511 26.5565 11.3314 25.5592 10.3394H25.5606ZM17.9911 26.8026C16.3968 26.8032 14.8317 26.3741 13.4605 25.5606L13.1365 25.3662L9.76962 26.2491L10.6687 22.9646L10.4581 22.6257C9.56686 21.2087 9.09549 19.568 9.09867 17.894C9.09867 12.9989 13.0906 9.00559 17.9965 9.00559C19.1653 9.00349 20.3229 9.23276 21.4026 9.68017C22.4823 10.1276 23.4628 10.7843 24.2875 11.6124C25.1151 12.4374 25.7712 13.418 26.2179 14.4977C26.6646 15.5774 26.8932 16.7349 26.8903 17.9034C26.8849 22.8161 22.893 26.8026 17.9911 26.8026ZM22.8714 20.1417C22.6054 20.0081 21.2919 19.3614 21.0448 19.2696C20.7991 19.1819 20.6196 19.136 20.4441 19.4033C20.2645 19.6692 19.7515 20.2754 19.5976 20.4495C19.4437 20.6291 19.2844 20.6493 19.0171 20.517C18.7512 20.382 17.8885 20.1012 16.8679 19.1873C16.0714 18.4785 15.5382 17.601 15.3789 17.3351C15.225 17.0678 15.364 16.9247 15.4977 16.791C15.6151 16.6722 15.7636 16.4778 15.8973 16.3239C16.0323 16.17 16.0768 16.0566 16.1646 15.8784C16.2523 15.6975 16.2105 15.5436 16.1443 15.41C16.0768 15.2763 15.5436 13.9574 15.3181 13.4255C15.1021 12.9003 14.8821 12.9732 14.7174 12.9665C14.5635 12.957 14.3839 12.957 14.2044 12.957C14.0688 12.9604 13.9354 12.9918 13.8125 13.0491C13.6896 13.1065 13.5799 13.1887 13.4902 13.2905C13.2445 13.5578 12.5574 14.2044 12.5574 15.5234C12.5574 16.8423 13.5159 18.11 13.6509 18.2895C13.7832 18.4691 15.5328 21.1677 18.2179 22.3287C18.8524 22.6055 19.3519 22.7688 19.7421 22.893C20.3833 23.0982 20.9625 23.0672 21.4242 23.001C21.9372 22.9227 23.005 22.353 23.2305 21.728C23.4519 21.1016 23.4519 20.567 23.3844 20.4549C23.3182 20.3415 23.1387 20.2754 22.8714 20.1417Z" fill="white"/>
</g>
<defs>
<clipPath id="clip0_1602_6909">
<rect width="21.6" height="21.6" fill="white" transform="translate(7.19922 7.19922)"/>
</clipPath>
</defs>
</svg>
