<svg width="66" height="66" viewBox="0 0 66 66" fill="none" xmlns="http://www.w3.org/2000/svg">
<g filter="url(#filter0_d_1549_6837)">
<rect x="15" y="15" width="36" height="36" rx="4" fill="#00E676"/>
<g clip-path="url(#clip0_1549_6837)">
<path d="M40.5606 25.3394C39.5703 24.3399 38.391 23.5476 37.0915 23.0085C35.7919 22.4694 34.3981 22.1943 32.9911 22.1993C27.0957 22.1993 22.291 27.0026 22.2856 32.8994C22.2856 34.788 22.7797 36.6254 23.7126 38.2521L22.1992 43.7993L27.8746 42.3116C29.4447 43.166 31.2036 43.6139 32.9911 43.6143H32.9965C38.8933 43.6143 43.6966 38.811 43.702 32.9088C43.7034 31.5022 43.4264 30.1092 42.887 28.8101C42.3476 27.511 41.5565 26.3314 40.5592 25.3394H40.5606ZM32.9911 41.8026C31.3968 41.8032 29.8317 41.3741 28.4605 40.5606L28.1365 40.3662L24.7696 41.2491L25.6687 37.9646L25.4581 37.6257C24.5669 36.2087 24.0955 34.568 24.0987 32.894C24.0987 27.9989 28.0906 24.0056 32.9965 24.0056C34.1653 24.0035 35.3229 24.2328 36.4026 24.6802C37.4823 25.1276 38.4628 25.7843 39.2875 26.6124C40.1151 27.4374 40.7712 28.418 41.2179 29.4977C41.6646 30.5774 41.8932 31.7349 41.8903 32.9034C41.8849 37.8161 37.893 41.8026 32.9911 41.8026ZM37.8714 35.1417C37.6054 35.0081 36.2919 34.3614 36.0448 34.2696C35.7991 34.1819 35.6196 34.136 35.4441 34.4033C35.2645 34.6692 34.7515 35.2754 34.5976 35.4495C34.4437 35.6291 34.2844 35.6493 34.0171 35.517C33.7512 35.382 32.8885 35.1012 31.8679 34.1873C31.0714 33.4785 30.5382 32.601 30.3789 32.3351C30.225 32.0678 30.364 31.9247 30.4977 31.791C30.6151 31.6722 30.7636 31.4778 30.8973 31.3239C31.0323 31.17 31.0768 31.0566 31.1646 30.8784C31.2523 30.6975 31.2105 30.5436 31.1443 30.41C31.0768 30.2763 30.5436 28.9574 30.3181 28.4255C30.1021 27.9003 29.8821 27.9732 29.7174 27.9665C29.5635 27.957 29.3839 27.957 29.2044 27.957C29.0688 27.9604 28.9354 27.9918 28.8125 28.0491C28.6896 28.1065 28.5799 28.1887 28.4902 28.2905C28.2445 28.5578 27.5574 29.2044 27.5574 30.5234C27.5574 31.8423 28.5159 33.11 28.6509 33.2895C28.7832 33.4691 30.5328 36.1677 33.2179 37.3287C33.8524 37.6055 34.3519 37.7688 34.7421 37.893C35.3833 38.0982 35.9625 38.0672 36.4242 38.001C36.9372 37.9227 38.005 37.353 38.2305 36.728C38.4519 36.1016 38.4519 35.567 38.3844 35.4549C38.3182 35.3415 38.1387 35.2754 37.8714 35.1417Z" fill="white"/>
</g>
</g>
<defs>
<filter id="filter0_d_1549_6837" x="0" y="0" width="66" height="66" filterUnits="userSpaceOnUse" color-interpolation-filters="sRGB">
<feFlood flood-opacity="0" result="BackgroundImageFix"/>
<feColorMatrix in="SourceAlpha" type="matrix" values="0 0 0 0 0 0 0 0 0 0 0 0 0 0 0 0 0 0 127 0" result="hardAlpha"/>
<feOffset/>
<feGaussianBlur stdDeviation="7.5"/>
<feColorMatrix type="matrix" values="0 0 0 0 0 0 0 0 0 0.878431 0 0 0 0 0.607843 0 0 0 1 0"/>
<feBlend mode="normal" in2="BackgroundImageFix" result="effect1_dropShadow_1549_6837"/>
<feBlend mode="normal" in="SourceGraphic" in2="effect1_dropShadow_1549_6837" result="shape"/>
</filter>
<clipPath id="clip0_1549_6837">
<rect width="21.6" height="21.6" fill="white" transform="translate(22.1992 22.1992)"/>
</clipPath>
</defs>
</svg>
