<svg width="176" height="102" viewBox="0 0 176 102" fill="none" xmlns="http://www.w3.org/2000/svg">
<g clip-path="url(#clip0_527_10843)">
<path d="M101.293 9.22025L100.445 8.82501C100.907 11.4599 99.8542 15.7482 98.114 17.0459C95.4234 19.022 93.6896 14.6613 93.0731 12.8959C92.4683 11.2883 92.3849 9.52337 92.8355 7.86328L91.8852 8.937C91.4678 12.9947 92.9768 18.1196 97.2535 18.2118C100.406 18.2777 101.594 12.6456 101.293 9.22025Z" fill="#272214"/>
<path d="M96.9443 4.22328C96.4691 5.47485 95.1977 6.02159 94.1317 6.67373C93.1771 7.23384 92.3199 7.95287 91.5952 8.8014C90.6256 9.98051 90.5164 11.5614 90.3559 13.0106C90.3045 13.5244 91.1072 13.5244 91.165 13.0106C91.454 10.3296 92.2053 8.88044 94.5363 7.36538C95.8206 6.52222 97.1434 5.95572 97.747 4.44066C97.9268 3.95321 97.1498 3.78194 96.97 4.22328" fill="#272214"/>
<path d="M96.83 5.85506V5.79577L96.5154 6.21077H96.5925L96.1108 5.96704C96.5559 7.02352 97.3462 7.88774 98.3455 8.4109C99.7068 9.12891 102.474 9.79422 101.775 11.9746C101.601 12.5081 102.417 12.7387 102.59 12.2051C103.046 10.7955 102.256 9.57025 101.158 8.79955C100.396 8.34843 99.5967 7.96709 98.7693 7.65996C97.7162 7.16592 97.3694 6.50719 96.8429 5.5257C96.7945 5.4435 96.7213 5.37973 96.6344 5.34407C96.5475 5.3084 96.4516 5.30279 96.3613 5.32808H96.2906C96.2019 5.355 96.124 5.41056 96.0685 5.4865C96.0129 5.56245 95.9828 5.65473 95.9824 5.74966V5.80895C95.9824 5.92425 96.0271 6.03484 96.1065 6.11637C96.186 6.1979 96.2938 6.24371 96.4062 6.24371C96.5186 6.24371 96.6264 6.1979 96.7059 6.11637C96.7854 6.03484 96.83 5.92425 96.83 5.80895" fill="#272214"/>
<path d="M97.0464 2.56305C92.5 -1.30364 90.2076 2.79361 89.0003 7.1741C88.3949 9.24661 88.3727 11.4524 88.9361 13.5374C89.6489 16.2249 95.8777 22.193 89.5012 22.8122C88.9618 22.8649 88.9554 23.708 89.5012 23.6553C92.1019 23.3984 94.2852 21.4486 92.8661 18.682C91.357 15.7441 89.3728 13.847 89.3343 10.3096C89.3022 7.01601 91.4662 -1.04674 96.4428 3.19543C96.8602 3.54455 97.4638 2.9517 97.0464 2.59599" fill="#272214"/>
<path d="M97.1116 3.16219C99.6224 -1.1195 103.931 1.06086 105.049 4.57844C105.639 6.43603 104.92 8.40561 104.175 10.0788C103.276 12.101 102.127 13.8928 101.645 16.0731C101.08 18.6026 101.42 21.5932 103.43 23.3849C103.841 23.7472 104.438 23.1544 104.034 22.7921C100.29 19.459 103.148 14.0179 104.907 10.5003C105.492 9.43964 105.854 8.26526 105.97 7.05259C106.086 5.83992 105.954 4.61573 105.582 3.45861C104.156 -1.00752 98.5179 -0.941649 96.3795 2.7406C96.1034 3.2083 96.8355 3.62988 97.1116 3.16219Z" fill="#272214"/>
<path d="M94.2847 13.9656C94.4718 14.4884 94.8023 14.9444 95.2364 15.2787C95.6706 15.613 96.1897 15.8112 96.7313 15.8496C97.9513 15.8957 98.555 14.7627 98.7283 13.7022C98.8182 13.1554 98.0027 12.9183 97.9128 13.4716C97.7715 14.3279 97.4055 15.1118 96.4166 14.9537C95.7167 14.8417 95.2864 14.1501 95.0167 13.5506C94.747 12.9512 94.0599 13.4848 94.2847 13.992" fill="#272214"/>
<path d="M96.7428 9.38231C96.7653 9.67266 96.7524 9.96477 96.7042 10.2518C96.6015 10.7986 97.417 11.0357 97.5198 10.4824C97.5911 10.1206 97.6149 9.75059 97.5904 9.38231C97.5455 8.82899 96.6978 8.8224 96.7428 9.38231Z" fill="#272214"/>
<path d="M95.4847 9.38478C95.4847 9.77342 95.5232 10.1555 95.5361 10.5441C95.5361 11.104 96.4094 11.104 96.3837 10.5441C96.3837 10.1555 96.3837 9.77342 96.3323 9.38478C96.3323 8.82487 95.4654 8.82487 95.4847 9.38478Z" fill="#272214"/>
<path d="M95.9197 18.5227C97.3645 22.89 94.4235 29.6814 93.1199 33.9302C91.4825 39.1667 89.4913 44.2798 87.1608 49.2323C87.1254 49.2905 87.1037 49.3565 87.0975 49.4248C87.0914 49.4932 87.1008 49.5621 87.1251 49.626C87.1494 49.69 87.1879 49.7472 87.2376 49.7932C87.2873 49.8392 87.3467 49.8727 87.4112 49.891C90.2858 50.6862 93.2583 51.0458 96.2343 50.9581C99.368 50.8791 102.367 49.6012 105.507 49.8976C106.046 49.9503 106.046 49.0808 105.507 49.0281C101.571 48.6526 97.6984 50.1808 93.7171 50.0952C91.6044 50.0425 87.6231 50.3323 88.9524 47.3813C89.8385 45.4051 90.6476 43.4289 91.431 41.4001C92.9492 37.4341 94.261 33.3883 95.361 29.2796C96.2793 25.9135 97.8846 21.7768 96.7416 18.3119C96.5618 17.7849 95.7463 18.0089 95.9197 18.5425" fill="#272214"/>
<path d="M96.3492 18.0928C97.1968 23.9686 98.9178 29.6072 100.51 35.3052C101.84 40.0809 102.257 45.4561 105.198 49.5533C105.519 50.0012 106.257 49.5533 105.93 49.112C102.867 44.8369 102.379 38.8557 100.992 33.8494C99.5214 28.5796 97.9545 23.3098 97.139 17.8622C97.062 17.3089 96.2464 17.546 96.3235 18.0928" fill="#272214"/>
<path d="M97.9887 21.1168C98.967 24.4077 100.206 27.611 101.694 30.6946C102.464 32.2317 103.392 33.6803 104.462 35.0158C104.982 35.6745 106.349 36.5506 106.568 37.3872C106.754 38.092 106.651 39.2184 105.707 39.1855C105.435 39.1527 105.176 39.043 104.961 38.8685C104.746 38.6941 104.582 38.4618 104.487 38.1974C104.32 37.8154 104.044 36.88 104.436 36.577C104.5 36.5294 104.575 36.4999 104.654 36.4913C104.713 36.4805 104.773 36.4832 104.83 36.4992C104.887 36.5153 104.94 36.5442 104.985 36.584C105.03 36.6238 105.066 36.6734 105.09 36.7292C105.113 36.7849 105.125 36.8455 105.123 36.9063C105.489 37.4531 105.296 37.2884 104.551 36.4189C104.042 35.8911 103.574 35.3228 103.152 34.7194C102.143 33.2831 101.254 31.7627 100.493 30.1742C99.1657 27.3297 98.0641 24.38 97.1988 21.3539C97.0383 20.8203 97.841 20.5898 98.0208 21.1233" fill="#272214"/>
<path d="M97.2646 21.3321C96.3056 24.7087 95.0259 27.9807 93.4438 31.1009C92.3137 33.3274 91.0294 36.0874 88.6342 37.0821C87.504 37.5432 87.1123 36.0347 87.3113 35.2838C87.7673 33.5777 89.6487 33.7885 90.734 34.4867C91.1963 34.7832 90.7725 35.5341 90.3037 35.2377C90.7211 35.5012 96.0831 22.3136 96.4491 21.1015C96.4842 20.997 96.5569 20.9102 96.6522 20.8587C96.7475 20.8072 96.8584 20.7949 96.9623 20.8242C97.0662 20.8536 97.1553 20.9224 97.2114 21.0168C97.2676 21.1111 97.2866 21.2239 97.2646 21.3321Z" fill="#272214"/>
<path d="M95.0301 50.8626V50.7506L94.1953 50.632C94.3237 52.3403 94.48 54.0398 94.6641 55.7305C94.7219 56.2838 95.5695 56.2904 95.5117 55.7305C95.3276 54.0354 95.1713 52.3359 95.0429 50.632C95.0429 50.1775 94.298 49.9733 94.2081 50.52V50.632C94.1183 51.1787 94.9337 51.4159 95.0301 50.8626Z" fill="#272214"/>
<path d="M98.3768 50.2104C98.2291 52.1207 97.9979 54.0244 97.7346 55.9281C97.664 56.4815 98.5116 56.4749 98.5887 55.9281C98.8327 54.0244 99.0703 52.1207 99.2308 50.2104C99.2758 49.6505 98.4282 49.6571 98.3832 50.2104" fill="#272214"/>
<path d="M98.5825 56.4027C99.7191 54.7296 102.288 53.972 103.167 56.4027L103.36 55.9153C102.012 56.6135 99.9888 56.2578 98.576 55.9746C98.0431 55.8692 97.8119 56.7123 98.3513 56.8177C100.047 57.1537 102.204 57.4764 103.79 56.6662C103.872 56.6182 103.936 56.5433 103.97 56.4536C104.005 56.3639 104.01 56.2647 103.983 56.1722C103.775 55.5618 103.398 55.0268 102.899 54.6325C102.399 54.2383 101.799 54.0019 101.17 53.9523C99.7897 53.7942 98.5696 54.9338 97.844 55.9943C97.5294 56.4554 98.2678 56.8902 98.5825 56.4357" fill="#272214"/>
<path d="M95.2733 55.7574C94.522 54.7166 93.989 53.9064 92.6148 53.7812C91.3491 53.8533 90.1596 54.4245 89.2949 55.3754C89.2172 55.4587 89.1738 55.5696 89.1738 55.685C89.1738 55.8003 89.2172 55.9112 89.2949 55.9946C90.0958 56.6723 91.0824 57.0777 92.118 57.1544C93.1536 57.2311 94.1867 56.9754 95.0743 56.4227C95.5238 56.1065 95.0743 55.349 94.6504 55.6718C93.3661 56.5742 91.0223 56.4688 89.9178 55.3754V55.9946C90.5362 55.3654 91.3116 54.9233 92.1589 54.7166C93.334 54.3939 93.9505 55.3754 94.5541 56.179C94.8816 56.6203 95.6137 56.179 95.2862 55.7377" fill="#272214"/>
<path d="M80.9213 56.3795C82.09 54.6603 84.7292 53.883 85.6282 56.3795C85.6988 56.2148 85.7631 56.0436 85.8337 55.8789C84.4467 56.5969 82.3661 56.228 80.9148 55.9448C80.369 55.8328 80.1314 56.6957 80.6837 56.8011C82.4303 57.1502 84.62 57.5059 86.2703 56.6496C86.3535 56.5995 86.4181 56.5225 86.4541 56.4308C86.4901 56.339 86.4955 56.2376 86.4694 56.1424C86.2548 55.5161 85.8675 54.9673 85.3545 54.5627C84.8415 54.158 84.2249 53.915 83.5797 53.8632C82.1606 53.6985 80.9148 54.8711 80.17 55.9579C79.8489 56.4322 80.6002 56.8802 80.9213 56.4125" fill="#272214"/>
<path d="M77.5428 55.7183C76.7723 54.6446 76.2072 53.8146 74.8137 53.7422C73.5201 53.7917 72.2956 54.3536 71.3975 55.3099C71.354 55.3524 71.3193 55.4035 71.2957 55.4601C71.272 55.5167 71.2598 55.5777 71.2598 55.6393C71.2598 55.7009 71.272 55.7619 71.2957 55.8185C71.3193 55.8751 71.354 55.9262 71.3975 55.9687C72.2174 56.6588 73.2254 57.0717 74.2831 57.1507C75.3409 57.2297 76.3965 56.971 77.3052 56.41C77.7612 56.0872 77.3052 55.3099 76.8686 55.6393C75.5843 56.5681 73.1506 56.4627 72.014 55.3363V55.995C72.6616 55.3684 73.4627 54.9336 74.3321 54.7369C75.5393 54.4075 76.1686 55.3956 76.7915 56.2387C77.1254 56.6933 77.8832 56.2387 77.5428 55.7908" fill="#272214"/>
<path d="M74.084 6.70188C73.2277 9.27019 73.3423 12.0746 74.4051 14.5604C75.1243 16.3587 76.8388 18.8355 78.9643 18.9409C84.4739 19.2242 83.7419 10.9704 82.3356 7.6175C82.1108 7.09053 81.3595 7.54505 81.5843 8.06544C82.4843 10.1634 82.7505 12.4901 82.3484 14.7449C81.8732 17.5576 79.401 19.0463 77.0314 16.9648C74.3216 14.5934 73.8207 10.1865 74.9252 6.93902C75.105 6.39228 74.283 6.16173 74.084 6.70188Z" fill="#272214"/>
<path d="M77.0804 8.77357C77.0804 9.20832 77.0355 9.64967 77.0098 10.091C77.0098 10.6641 77.851 10.6641 77.8831 10.091C77.8831 9.65625 77.928 9.21491 77.9473 8.77357C77.9473 8.20048 77.1125 8.20048 77.0804 8.77357Z" fill="#272214"/>
<path d="M78.1123 9.07792C78.215 9.41387 78.3114 9.73664 78.4141 10.0858C78.4488 10.1954 78.5234 10.287 78.6223 10.3417C78.7212 10.3963 78.8368 10.4098 78.9451 10.3793C79.0534 10.3487 79.1461 10.2766 79.2039 10.1777C79.2616 10.0789 79.2801 9.96102 79.2553 9.84862C79.1526 9.51267 79.0498 9.1899 78.9535 8.84078C78.9188 8.73118 78.8442 8.63952 78.7454 8.58486C78.6465 8.53019 78.5308 8.51673 78.4225 8.54726C78.3142 8.5778 78.2215 8.64999 78.1637 8.74882C78.106 8.84765 78.0875 8.96551 78.1123 9.07792Z" fill="#272214"/>
<path d="M76.4664 14.6554C77.359 16.4668 80.634 15.9728 80.6918 13.8386C80.6918 13.7198 80.6458 13.6058 80.5639 13.5218C80.482 13.4378 80.3709 13.3906 80.2551 13.3906C80.1393 13.3906 80.0282 13.4378 79.9463 13.5218C79.8644 13.6058 79.8184 13.7198 79.8184 13.8386C79.7863 15.1231 77.7058 15.1889 77.2177 14.2009C76.9673 13.687 76.216 14.1416 76.4664 14.6554Z" fill="#272214"/>
<path d="M77.1367 3C74.4783 3.84316 72.1023 5.63489 71.2483 8.44763C71.2245 8.54206 71.2314 8.64188 71.2679 8.73192C71.3045 8.82196 71.3687 8.8973 71.4508 8.94649C71.5329 8.99568 71.6284 9.01604 71.7228 9.00447C71.8172 8.9929 71.9054 8.95003 71.9739 8.88238C73.347 7.48804 75.0212 6.44541 76.8606 5.83909L76.3276 5.31211C76.1299 6.17229 76.1858 7.07334 76.4882 7.90089C76.5125 7.98352 76.5596 8.05718 76.6237 8.11301C76.6879 8.16884 76.7664 8.20447 76.8499 8.2156C76.9333 8.22674 77.0181 8.21291 77.0941 8.17577C77.17 8.13864 77.2339 8.07978 77.278 8.00628C77.7618 7.20855 78.1417 6.34931 78.4082 5.45044H77.567C77.7664 6.08784 78.0941 6.67517 78.5289 7.17444C78.9636 7.67372 79.4956 8.0738 80.0906 8.34882C80.5979 8.59255 81.041 7.82843 80.5337 7.57811C80.0349 7.36315 79.587 7.04075 79.2203 6.63275C78.8536 6.22474 78.5766 5.74067 78.4082 5.2133C78.3826 5.11908 78.3276 5.03605 78.2516 4.97689C78.1757 4.91774 78.0829 4.88571 77.9876 4.88571C77.8922 4.88571 77.7995 4.91774 77.7235 4.97689C77.6476 5.03605 77.5926 5.11908 77.567 5.2133C77.3198 6.03758 76.9702 6.82575 76.5267 7.55835L77.323 7.66375C77.0244 7.00111 76.9697 6.25006 77.1688 5.54925C77.1889 5.47449 77.19 5.3957 77.172 5.32038C77.1541 5.24507 77.1176 5.17572 77.0661 5.11894C77.0146 5.06216 76.9498 5.01984 76.8779 4.996C76.806 4.97216 76.7293 4.9676 76.6551 4.98275C74.6714 5.63948 72.8671 6.76805 71.3895 8.27636L72.1152 8.71112C72.8729 6.20797 75.0369 4.63363 77.3936 3.88927C77.9266 3.71801 77.7018 2.85508 77.1624 3.02635" fill="#272214"/>
<path d="M77.9329 3.38195C78.6566 3.80413 79.4178 4.15483 80.2061 4.42932C80.8846 4.69894 81.4777 5.15469 81.9207 5.74676C82.2546 6.14858 83.0188 7.06421 82.9545 7.65047L83.5068 7.2223C82.3642 6.86931 81.2814 6.33833 80.296 5.64796C79.9942 5.39105 79.397 5.64796 79.5704 6.07612L80.2126 7.88102C80.4116 8.41459 81.2528 8.18403 81.0538 7.64388C80.8547 7.10373 80.6043 6.44501 80.4116 5.83898L79.6796 6.27374C80.7777 7.06814 81.9914 7.67951 83.2756 8.08523C83.5646 8.19721 83.7957 7.91396 83.8214 7.65047C83.9499 6.49771 82.5885 5.06828 81.8179 4.35686C80.874 3.48735 79.4677 3.23045 78.3696 2.59807C77.8816 2.32141 77.4385 3.09211 77.9329 3.36878" fill="#272214"/>
<path d="M79.0357 18.9915H78.9972C78.7018 18.8796 78.5284 19.0903 78.4129 19.3736C78.1945 19.9203 78.1046 20.5198 77.8991 21.0797C76.7176 24.235 74.8811 27.1136 73.3078 30.0778C72.3253 31.9288 71.3428 33.793 70.264 35.5979C69.645 36.4315 69.3334 37.4629 69.3843 38.5095C69.4549 39.0233 70.2961 39.5305 70.7521 39.2143C71.8052 38.4765 71.3236 36.9812 71.2144 35.8812C71.2081 35.8275 71.1906 35.7758 71.163 35.7297L71.2016 35.6243C72.2739 33.7667 73.1986 31.7971 74.2004 29.8934C74.971 28.4244 75.8314 27.0082 76.6277 25.559C77.394 24.2052 78.0865 22.8087 78.7018 21.3761C78.8752 20.9611 79.6586 19.3407 79.0422 18.9915" fill="#272214"/>
<path d="M78.875 20.8434C79.5171 23.7154 81.084 25.9419 82.7279 28.287C84.2241 30.3949 85.7075 32.4962 87.0945 34.6766C87.2165 34.8676 87.7367 35.8491 88.0449 35.7042C88.2183 35.6317 88.1733 35.197 88.1669 35.0454C88.1669 34.5251 87.4734 34.6897 87.5247 35.2167C87.5697 36.5342 87.0945 36.0138 87.8073 36.7515C88.2632 37.2258 89.0916 36.5869 89.0531 35.9742C88.976 34.861 88.1412 34.1496 87.4798 33.3394C85.3398 30.7868 83.3765 28.0838 81.6041 25.2503C80.7116 23.8365 80.0601 22.2772 79.6777 20.6392C79.5685 20.1254 78.8044 20.3494 78.9135 20.8566" fill="#272214"/>
<path d="M78.7649 19.4324C79.3107 22.4493 80.0491 26.9813 80.794 29.9719C81.1601 31.4606 81.5646 32.9362 81.982 34.4117C82.5728 36.5064 81.4426 35.9597 79.7923 35.8872C78.341 35.828 76.8834 35.8016 75.4321 35.7818C73.3708 35.7489 74.3019 34.7542 74.8349 33.2326C75.9266 30.1037 79.0538 22.2451 79.529 18.9581C79.6061 18.3982 78.7713 18.1545 78.6878 18.721C78.0457 23.141 74.4817 31.9678 72.8378 36.098C72.8201 36.1642 72.8175 36.2337 72.8301 36.3011C72.8427 36.3684 72.8702 36.432 72.9106 36.4867C72.9509 36.5414 73.003 36.586 73.0627 36.6168C73.1225 36.6476 73.1883 36.664 73.2552 36.6645C76.5259 36.6645 79.7923 36.7568 83.0544 36.9412C83.1214 36.9403 83.1873 36.9239 83.2473 36.8931C83.3072 36.8623 83.3595 36.818 83.4003 36.7634C83.4411 36.7089 83.4693 36.6456 83.4828 36.5782C83.4963 36.5109 83.4947 36.4413 83.4782 36.3747C81.896 30.7273 80.6098 24.997 79.6253 19.2084C79.5226 18.6419 78.6878 18.8856 78.7841 19.4455" fill="#272214"/>
<path d="M73.1055 36.7628C73.1055 39.1539 73.1633 41.5517 73.1889 43.9494C73.1922 44.0672 73.2392 44.1792 73.3204 44.2625C73.4016 44.3458 73.5108 44.394 73.6256 44.3973L77.8509 44.5752C77.9662 44.5735 78.0763 44.5258 78.1579 44.4421C78.2394 44.3585 78.2859 44.2455 78.2876 44.1273C78.4674 42.4409 79.1095 40.5965 79.2958 38.9036L78.4417 39.0222C78.7628 40.6756 78.8719 42.7769 79.193 44.4303L79.6104 43.8638C79.5376 43.8349 79.4624 43.8128 79.3857 43.7979L79.1545 44.6608C80.9268 45.089 83.0523 44.786 84.876 44.7992C84.9429 44.7986 85.0088 44.7823 85.0685 44.7514C85.1283 44.7206 85.1803 44.6761 85.2207 44.6213C85.261 44.5666 85.2886 44.5031 85.3012 44.4357C85.3138 44.3683 85.3111 44.2988 85.2934 44.2327C84.5014 41.6285 83.7137 39.0222 82.9303 36.4136C82.7633 35.8669 81.9221 36.0975 82.0891 36.6508C82.8768 39.2593 83.6645 41.8679 84.4522 44.4764L84.876 43.9099C83.1551 43.9099 81.0617 44.1997 79.3857 43.7979C78.8398 43.6662 78.6087 44.5225 79.1545 44.6608C79.299 44.7232 79.4537 44.7567 79.6104 44.7596C79.6769 44.7578 79.7421 44.7406 79.8012 44.7094C79.8603 44.6782 79.9118 44.6338 79.9519 44.5794C79.992 44.5249 80.0196 44.462 80.0328 44.3951C80.0459 44.3283 80.0442 44.2592 80.0278 44.1931C79.7132 42.5398 79.5976 40.4384 79.2765 38.785C79.1737 38.2515 78.4738 38.4425 78.4224 38.9036C78.3069 39.9444 78.0564 41.2421 77.8638 42.1972C77.5876 43.5805 77.7097 43.653 76.1621 43.5805C74.1201 43.4949 74.0558 43.3039 74.0302 41.2289L73.9724 36.7364C73.9595 36.6278 73.9082 36.5278 73.8284 36.4553C73.7485 36.3827 73.6456 36.3427 73.5389 36.3427C73.4323 36.3427 73.3293 36.3827 73.2494 36.4553C73.1696 36.5278 73.1184 36.6278 73.1055 36.7364" fill="#272214"/>
<path d="M75.2829 44.4518C75.5912 48.3185 76.4645 52.1062 76.6507 55.986C76.6507 56.5591 77.5497 56.5591 77.524 55.986C77.3314 52.1062 76.4581 48.3185 76.1562 44.4518C76.1113 43.8787 75.238 43.8721 75.2829 44.4518Z" fill="#272214"/>
<path d="M81.5008 44.5612C81.5352 48.4293 81.0732 52.2852 80.1266 56.0295C79.9981 56.5895 80.8394 56.8266 80.9678 56.2667C81.9359 52.4453 82.4067 48.5093 82.3677 44.5612C82.3677 43.9881 81.4815 43.9815 81.5008 44.5612Z" fill="#272214"/>
<path d="M58.0284 101.48C58.0292 101.537 58.0175 101.593 57.9941 101.644C57.9708 101.696 57.9364 101.741 57.8936 101.777C57.8003 101.852 57.6846 101.891 57.5661 101.889C57.4946 101.892 57.4232 101.88 57.3567 101.853C57.2903 101.825 57.2303 101.784 57.1808 101.731L55.2094 99.5635L54.5673 100.117V101.434C54.5703 101.496 54.5591 101.557 54.5345 101.613C54.51 101.669 54.4728 101.719 54.426 101.757C54.3294 101.836 54.2091 101.878 54.0857 101.876C53.9642 101.878 53.8459 101.836 53.7517 101.757C53.7057 101.718 53.6691 101.668 53.6446 101.612C53.6201 101.557 53.6084 101.496 53.6105 101.434V96.9154C53.6058 96.8538 53.6162 96.7919 53.6409 96.7355C53.6656 96.6791 53.7037 96.63 53.7517 96.5927C53.847 96.5167 53.9651 96.4772 54.0857 96.4807C54.2079 96.4793 54.3273 96.5186 54.426 96.5927C54.474 96.63 54.5121 96.6791 54.5368 96.7355C54.5615 96.7919 54.572 96.8538 54.5673 96.9154V98.9377L57.1359 96.619C57.2335 96.5307 57.3589 96.4816 57.489 96.4807C57.5509 96.4797 57.6123 96.4914 57.6697 96.5151C57.727 96.5389 57.7791 96.5742 57.8229 96.619C57.8664 96.6561 57.9015 96.7023 57.9259 96.7547C57.9503 96.807 57.9634 96.8641 57.9642 96.922C57.9627 96.9864 57.9469 97.0495 57.918 97.1066C57.889 97.1637 57.8477 97.2132 57.7973 97.2514L55.8708 98.9575L57.8615 101.125C57.9569 101.219 58.0162 101.345 58.0284 101.48Z" fill="#272214"/>
<path d="M65.8322 96.7243C65.8728 96.7965 65.8949 96.8781 65.8964 96.9614C65.8946 97.0305 65.877 97.0982 65.8451 97.159L63.6168 101.309C63.5422 101.501 63.414 101.666 63.2483 101.783C63.0826 101.9 62.8869 101.964 62.6857 101.968C62.5114 101.98 62.3385 101.929 62.1977 101.823C62.146 101.785 62.1035 101.736 62.0734 101.679C62.0433 101.622 62.0265 101.558 62.0243 101.493C62.0245 101.435 62.038 101.377 62.0636 101.324C62.0892 101.272 62.1263 101.226 62.172 101.19C62.2866 101.097 62.4305 101.05 62.5765 101.059C62.6418 101.064 62.707 101.048 62.7628 101.013C62.824 100.952 62.8702 100.878 62.8976 100.795L63.0774 100.393L61.151 97.192C61.1183 97.1291 61.1006 97.0591 61.0996 96.9878C61.101 96.8952 61.1253 96.8046 61.1702 96.7243C61.2126 96.6425 61.2804 96.5775 61.3629 96.5398C61.4244 96.5154 61.4896 96.502 61.5555 96.5003C61.6446 96.5021 61.7314 96.5295 61.806 96.5794C61.8839 96.6322 61.9496 96.7019 61.9986 96.7836L63.5719 99.5041L65.036 96.6848C65.0675 96.6228 65.1168 96.5722 65.1772 96.5398C65.2385 96.4996 65.31 96.4789 65.3827 96.4806C65.4778 96.482 65.5709 96.5093 65.6524 96.5596C65.7253 96.6005 65.7871 96.6594 65.8322 96.7309" fill="#272214"/>
<path d="M73.3649 96.5969C73.4121 96.6354 73.4499 96.6846 73.4756 96.7406C73.5012 96.7965 73.5138 96.8578 73.5126 96.9197V101.419C73.5148 101.482 73.5027 101.544 73.477 101.601C73.4514 101.659 73.4129 101.709 73.3649 101.748C73.27 101.831 73.149 101.875 73.0245 101.873C72.9049 101.876 72.7884 101.834 72.6971 101.755C72.6493 101.714 72.6115 101.663 72.587 101.604C72.5624 101.546 72.5517 101.482 72.5558 101.419V97.2951H71.1752L70.5908 100.365C70.5427 100.764 70.3895 101.142 70.1477 101.458C70.0056 101.608 69.8326 101.723 69.6414 101.794C69.4503 101.866 69.2459 101.893 69.0432 101.873C68.9359 101.873 68.833 101.83 68.7572 101.752C68.6813 101.674 68.6387 101.568 68.6387 101.458C68.6387 101.348 68.6813 101.243 68.7572 101.165C68.833 101.087 68.9359 101.043 69.0432 101.043C69.1676 101.054 69.2915 101.017 69.39 100.938C69.4593 100.878 69.5124 100.801 69.5441 100.714C69.5879 100.569 69.6243 100.422 69.6533 100.273L70.2954 96.979C70.3183 96.8262 70.3991 96.6889 70.5202 96.5969C70.656 96.5088 70.8157 96.4672 70.9761 96.4783H73.0053C73.1285 96.4773 73.2485 96.5191 73.3456 96.5969" fill="#272214"/>
<path d="M78.5123 99.6189L78.4802 100.185L81.0488 96.7337C81.1066 96.654 81.1812 96.5887 81.2671 96.5427C81.3471 96.4957 81.4384 96.4729 81.5304 96.4768C81.6609 96.4759 81.787 96.5253 81.8836 96.6152C81.9335 96.6642 81.9725 96.7238 81.998 96.7897C82.0235 96.8556 82.0348 96.9264 82.0313 96.9972V101.424C82.0339 101.487 82.0225 101.55 81.998 101.608C81.9736 101.667 81.9367 101.718 81.89 101.76C81.787 101.835 81.6632 101.874 81.5368 101.872C81.4144 101.874 81.2947 101.835 81.1965 101.76C81.1479 101.72 81.1093 101.668 81.0836 101.61C81.058 101.552 81.046 101.488 81.0488 101.424V98.789L81.0809 98.3147L78.5765 101.628C78.5173 101.703 78.4428 101.764 78.3582 101.806C78.2545 101.853 78.1404 101.871 78.0276 101.859C77.9148 101.846 77.8073 101.803 77.7161 101.733C77.6622 101.69 77.6195 101.634 77.5915 101.569C77.5635 101.505 77.5512 101.435 77.5555 101.365V96.8721C77.5524 96.8125 77.5637 96.7531 77.5883 96.6991C77.613 96.6451 77.6502 96.5982 77.6968 96.5625C77.7947 96.4924 77.9114 96.4556 78.0307 96.4571C78.157 96.4556 78.2805 96.4948 78.3839 96.5691C78.4323 96.6022 78.4718 96.6474 78.4988 96.7003C78.5257 96.7533 78.5392 96.8124 78.538 96.8721L78.5123 99.6189Z" fill="#272214"/>
<path d="M89.6591 96.5992C89.7063 96.6377 89.7441 96.6869 89.7698 96.7429C89.7954 96.7988 89.808 96.8601 89.8068 96.922V101.421C89.809 101.484 89.7969 101.547 89.7712 101.604C89.7455 101.661 89.7071 101.711 89.6591 101.75C89.5642 101.833 89.4432 101.878 89.3188 101.876C89.1991 101.879 89.0826 101.836 88.9913 101.757C88.9435 101.716 88.9057 101.665 88.8812 101.606C88.8566 101.548 88.8459 101.484 88.85 101.421V99.6754H86.3841V101.421C86.3867 101.484 86.3754 101.547 86.3509 101.606C86.3264 101.664 86.2895 101.715 86.2429 101.757C86.1508 101.83 86.0379 101.869 85.9218 101.869C85.8057 101.869 85.6928 101.83 85.6007 101.757C85.5538 101.717 85.5167 101.667 85.4922 101.609C85.4676 101.552 85.4564 101.49 85.4595 101.428V96.9286C85.4571 96.8679 85.468 96.8074 85.4913 96.7515C85.5147 96.6957 85.5498 96.6459 85.5943 96.6058C85.6856 96.5264 85.8022 96.4842 85.9218 96.4872C86.0452 96.4851 86.1655 96.527 86.2621 96.6058C86.3093 96.6443 86.3472 96.6935 86.3728 96.7494C86.3984 96.8054 86.4111 96.8667 86.4098 96.9286V98.852H88.8564V96.922C88.8539 96.8606 88.8653 96.7995 88.8899 96.7435C88.9144 96.6874 88.9513 96.638 88.9977 96.5992C89.089 96.5198 89.2055 96.4776 89.3252 96.4806C89.4484 96.4796 89.5684 96.5214 89.6655 96.5992" fill="#272214"/>
<path d="M96.1999 96.6259L98.5373 101.329C98.5798 101.396 98.6022 101.474 98.6015 101.553C98.6018 101.61 98.5885 101.666 98.5628 101.717C98.5371 101.767 98.4996 101.811 98.4538 101.843C98.3522 101.916 98.2311 101.955 98.1071 101.955C98.0215 101.956 97.9372 101.933 97.863 101.889C97.7842 101.851 97.7207 101.786 97.6832 101.705L97.1053 100.532H94.4532L93.8753 101.705C93.8407 101.787 93.7795 101.854 93.7019 101.896C93.6267 101.936 93.5428 101.956 93.4579 101.955C93.3324 101.952 93.211 101.908 93.1112 101.83C93.0638 101.794 93.0252 101.747 92.9985 101.694C92.9717 101.64 92.9575 101.581 92.957 101.52C92.9597 101.463 92.9728 101.407 92.9956 101.355L95.3522 96.6259C95.382 96.5464 95.4391 96.4808 95.5128 96.4415C95.5955 96.4036 95.6855 96.3856 95.7761 96.3888C95.8617 96.3803 95.9479 96.3983 96.0235 96.4406C96.099 96.4829 96.1605 96.5474 96.1999 96.6259ZM94.8514 99.7087H96.7008L95.7761 97.8248L94.8514 99.7087Z" fill="#272214"/>
<path d="M102.74 101.437C102.743 101.5 102.731 101.562 102.706 101.618C102.68 101.674 102.641 101.723 102.592 101.76C102.496 101.834 102.378 101.874 102.258 101.872C102.14 101.874 102.024 101.834 101.931 101.76C101.885 101.724 101.848 101.677 101.824 101.623C101.799 101.569 101.787 101.51 101.789 101.451V96.9186C101.787 96.8582 101.798 96.798 101.823 96.7431C101.847 96.6881 101.884 96.6399 101.931 96.6024C102.024 96.5169 102.146 96.4721 102.271 96.4773H103.953C104.354 96.4679 104.752 96.5535 105.116 96.7276C105.428 96.8759 105.688 97.1198 105.861 97.4258C106.04 97.7411 106.132 98.1014 106.124 98.4666C106.131 98.8214 106.04 99.1709 105.861 99.4744C105.678 99.7641 105.417 99.993 105.109 100.133C104.736 100.294 104.333 100.373 103.928 100.364H102.74V101.437ZM102.74 99.5337H103.928C104.259 99.5565 104.587 99.4559 104.852 99.2505C104.961 99.1532 105.046 99.0323 105.103 98.8967C105.16 98.761 105.186 98.6141 105.18 98.4666C105.188 98.3117 105.163 98.157 105.108 98.0127C105.052 97.8684 104.967 97.7379 104.859 97.63C104.737 97.5192 104.594 97.4343 104.44 97.38C104.286 97.3258 104.123 97.3033 103.96 97.3138H102.74V99.5337Z" fill="#272214"/>
<path d="M110.79 99.6189V100.185L113.358 96.7337C113.414 96.6547 113.487 96.5895 113.57 96.5427C113.651 96.497 113.742 96.4742 113.834 96.4768C113.965 96.4731 114.092 96.5229 114.187 96.6152C114.239 96.6631 114.279 96.7223 114.306 96.7883C114.333 96.8544 114.345 96.9258 114.341 96.9972V101.424C114.344 101.488 114.332 101.552 114.306 101.61C114.28 101.668 114.242 101.72 114.193 101.76C114.092 101.833 113.971 101.872 113.846 101.872C113.722 101.872 113.601 101.833 113.5 101.76C113.452 101.719 113.414 101.668 113.39 101.609C113.365 101.551 113.354 101.487 113.358 101.424V98.789V98.3147L110.835 101.654C110.774 101.73 110.697 101.791 110.61 101.832C110.524 101.876 110.43 101.899 110.334 101.898C110.193 101.901 110.057 101.852 109.949 101.76C109.894 101.717 109.85 101.66 109.821 101.596C109.792 101.532 109.779 101.462 109.782 101.391V96.8721C109.78 96.8127 109.791 96.7536 109.816 96.6998C109.841 96.646 109.877 96.5989 109.923 96.5625C110.023 96.4923 110.142 96.4555 110.263 96.4571C110.388 96.4556 110.509 96.4949 110.61 96.5691C110.658 96.6022 110.698 96.6474 110.725 96.7003C110.752 96.7533 110.765 96.8124 110.764 96.8721L110.79 99.6189Z" fill="#272214"/>
<path d="M118.974 99.8051C118.639 99.7032 118.345 99.4958 118.133 99.2123C117.944 98.9488 117.843 98.6301 117.844 98.3032C117.844 97.9927 117.931 97.6888 118.094 97.4271C118.272 97.1451 118.52 96.9175 118.813 96.7684C119.165 96.5859 119.556 96.4954 119.95 96.5049H121.876C121.939 96.5007 122.002 96.5097 122.062 96.5312C122.122 96.5527 122.176 96.5863 122.223 96.6301C122.267 96.6689 122.302 96.7175 122.326 96.7723C122.349 96.827 122.36 96.8865 122.358 96.9463V101.465C122.361 101.527 122.35 101.588 122.325 101.644C122.301 101.7 122.263 101.749 122.217 101.788C122.119 101.864 121.999 101.903 121.876 101.9C121.755 101.901 121.637 101.859 121.542 101.781C121.496 101.743 121.458 101.693 121.434 101.637C121.409 101.581 121.398 101.52 121.401 101.459V99.95H120.072L118.595 101.735C118.55 101.795 118.493 101.844 118.427 101.878C118.362 101.913 118.29 101.931 118.216 101.933C118.103 101.933 117.993 101.891 117.908 101.814C117.867 101.777 117.834 101.732 117.812 101.68C117.79 101.629 117.779 101.574 117.779 101.518C117.78 101.38 117.833 101.248 117.927 101.149L118.974 99.8051ZM121.395 97.3349H119.943C119.645 97.3157 119.35 97.4095 119.115 97.5984C119.023 97.6717 118.949 97.7656 118.897 97.8729C118.846 97.9802 118.82 98.0981 118.82 98.2176C118.815 98.3435 118.839 98.4689 118.89 98.5834C118.941 98.6979 119.018 98.7983 119.115 98.8763C119.353 99.06 119.646 99.1532 119.943 99.1398H121.395V97.3349Z" fill="#272214"/>
<path d="M12.7967 72.875V87.7357H9.76579V75.747H3.26726V87.7357H0.236328V72.875H12.7967Z" fill="#272214"/>
<path d="M24.5883 85.2614H18.2182L17.3321 87.7448H14.1855L19.9649 72.8906H22.9508L28.6916 87.7448H25.5002L24.5883 85.2614ZM19.2328 82.4553H23.548L21.4033 76.5268L19.2328 82.4553Z" fill="#272214"/>
<path d="M39.9354 72.875V75.747H35.1707V87.7357H32.1397V75.747H27.375V72.875H39.9354Z" fill="#272214"/>
<path d="M41.9199 87.7392V72.8785H49.0413C50.015 72.8245 50.9825 73.0675 51.8218 73.5767C52.4191 73.9897 52.9084 74.5469 53.2467 75.1993C53.5849 75.8517 53.7619 76.5793 53.7619 77.3183C53.7619 78.0572 53.5849 78.7848 53.2467 79.4372C52.9084 80.0896 52.4191 80.6468 51.8218 81.0598C50.9888 81.5671 50.028 81.8101 49.0606 81.758H44.938V87.7392H41.9199ZM48.6175 78.9058C48.9913 78.9302 49.3662 78.881 49.722 78.7609C50.0192 78.665 50.2789 78.4744 50.4632 78.2167C50.6475 77.959 50.7469 77.6477 50.7469 77.3281C50.7469 77.0085 50.6475 76.6973 50.4632 76.4396C50.2789 76.1819 50.0192 75.9913 49.722 75.8954C49.363 75.7695 48.9832 75.718 48.6047 75.7439H44.938V78.9058H48.6175Z" fill="#272214"/>
<path d="M65.6124 87.7357V78.3292L57.2067 87.7357H55.5371V72.875H58.5552V82.2749L66.9738 72.875H68.6305V87.7357H65.6124Z" fill="#272214"/>
<path d="M82.4428 72.875L77.1708 79.3568L83.5537 87.7357H79.8229L74.3903 80.3581V87.7357H71.3594V72.875H74.3903V78.5005L78.8083 72.875H82.4428Z" fill="#272214"/>
<path d="M123.999 80.2461L117.809 72.875H116.158V87.7424H119.176V78.6059L123.999 84.4224L128.821 78.6059V87.7424H131.839V72.875H130.196L123.999 80.2461Z" fill="#272214"/>
<path d="M138.938 72.8906L133.158 87.7448H136.369L137.255 85.2614H143.677L144.588 87.7448H147.729L141.994 72.8906H138.938ZM138.295 82.4553L140.472 76.5268L142.611 82.4553H138.295Z" fill="#272214"/>
<path d="M158.916 73.5839C158.073 73.0884 157.106 72.8592 156.136 72.9251H149.072V87.7793H152.09V81.7981H156.162C157.129 81.8501 158.09 81.6072 158.923 81.0999C159.52 80.6869 160.009 80.1297 160.348 79.4773C160.686 78.8249 160.863 78.0973 160.863 77.3583C160.863 76.6194 160.686 75.8918 160.348 75.2394C160.009 74.587 159.52 74.0298 158.923 73.6168L158.916 73.5839ZM156.855 78.8009C156.5 78.9244 156.124 78.9737 155.751 78.9459H152.071V75.784H155.744C156.121 75.7586 156.498 75.8101 156.855 75.9355C157.152 76.0314 157.412 76.222 157.596 76.4797C157.781 76.7373 157.88 77.0486 157.88 77.3682C157.88 77.6878 157.781 77.9991 157.596 78.2568C157.412 78.5144 157.152 78.7051 156.855 78.8009Z" fill="#272214"/>
<path d="M174.105 72.875L165.686 82.2749V72.875H162.668V87.7357H164.331L172.743 78.3292V87.7357H175.761V72.875H174.105Z" fill="#272214"/>
<path d="M110.808 84.6962C110.592 85.7349 110.033 86.6653 109.226 87.3302C108.419 87.9951 107.413 88.3537 106.377 88.3456C104.374 88.3456 103.404 87.5287 101.015 85.3484C99.089 87.5617 97.4772 88.3456 94.9664 88.3456C91.4025 88.3456 89.2513 86.5538 88.911 83.2602C88.6091 80.2894 90.0925 78.333 93.9775 75.9221C92.5712 73.6363 91.9355 72.2991 91.7428 70.5403C91.4539 67.8659 93.9775 66.1071 96.3534 66.1862C98.7294 66.2652 101.125 68.3468 100.958 70.9882C100.804 73.4453 98.6331 74.7232 96.6874 75.6586C98.2577 78.0611 99.9735 80.3601 101.825 82.5422C103.34 79.6373 103.867 78.2737 103.751 76.897C103.667 75.8101 103.032 75.5795 101.542 75.5795V74.5717H108.535V75.5795C106.499 75.5795 106.397 76.0406 105.799 77.3449C104.864 79.4285 103.791 81.4444 102.589 83.3788C104.425 85.1705 105.575 86.1849 107.264 86.1849C107.874 86.2115 108.477 86.0517 108.999 85.7257C109.52 85.3996 109.935 84.9221 110.192 84.3537L110.808 84.6962ZM94.594 76.9299C92.3336 78.4977 91.5181 80.1313 91.7557 82.4434C92.0382 85.1837 93.5216 86.3562 95.9104 86.3562C96.7088 86.3983 97.5063 86.2562 98.2442 85.9404C98.9821 85.6247 99.6416 85.1432 100.174 84.5316C98.1289 82.1465 96.2634 79.6053 94.594 76.9299ZM96.3342 67.2796C96.0011 67.2465 95.6652 67.2948 95.3538 67.4204C95.0425 67.5461 94.7645 67.7456 94.5428 68.0026C94.321 68.2597 94.1618 68.5669 94.078 68.8992C93.9943 69.2315 93.9884 69.5794 94.061 69.9145C94.2151 71.4164 94.7417 72.5494 96.1223 74.8088C98.6523 73.4914 99.333 72.0685 99.1147 70.1978C98.9477 68.5641 97.9588 67.2928 96.3342 67.2928" fill="#272214"/>
</g>
<defs>
<clipPath id="clip0_527_10843">
<rect width="175.524" height="101.917" fill="white" transform="translate(0.238281 0.0429688)"/>
</clipPath>
</defs>
</svg>
