<svg width="256" height="44" viewBox="0 0 256 44" fill="none" xmlns="http://www.w3.org/2000/svg">
<path fill-rule="evenodd" clip-rule="evenodd" d="M62.8266 20.2233V33.4894H48.2475C48.41 33.2445 48.4543 33.2878 48.6758 33.1005L53.6685 28.52C53.8162 28.376 53.9344 28.2463 54.0821 28.1167L59.1486 23.5362C59.4588 23.2481 59.6951 22.9601 60.0349 22.7152C60.3894 22.4559 60.611 22.139 60.9655 21.8509C61.5563 21.3612 62.3539 20.5258 62.8266 20.2233ZM71.453 0H72.2211V42.636H25.6328V41.7573C25.6328 41.5557 26.0612 41.2244 26.2237 41.0948L26.5043 40.8643C26.5782 40.8067 26.5929 40.7779 26.652 40.7203C26.785 40.5906 26.8588 40.5186 26.9918 40.389C27.1247 40.2593 27.2281 40.1441 27.3758 40.0289L31.3197 36.4711C31.5708 36.2262 31.7776 36.0245 32.0287 35.7653L42.6935 26.0281C42.9594 25.7688 43.1662 25.6392 43.4468 25.3655L48.0702 21.1596C48.2032 21.0443 48.277 20.9579 48.41 20.8283L52.7084 16.8815C53.0186 16.6511 53.181 16.4782 53.4469 16.2046C53.7128 15.9453 53.9196 15.8301 54.1559 15.5852C54.4071 15.3403 54.6139 15.1387 54.865 14.8938C55.1308 14.6345 55.3229 14.5337 55.574 14.2744L58.4248 11.6385C58.5873 11.48 58.6316 11.48 58.7941 11.3504C59.1043 11.0911 59.444 10.659 59.8281 10.3709L61.9994 8.38316C62.0881 8.29673 62.1028 8.28233 62.2062 8.21031C62.221 8.1959 62.2358 8.1815 62.2505 8.1815C62.2653 8.1671 62.2801 8.15269 62.2949 8.15269L69.8725 1.25315C70.8621 0.273677 71.0394 0.0576162 71.453 0.0288081V0Z" fill="#A3C626"/>
<path fill-rule="evenodd" clip-rule="evenodd" d="M78.8351 42.2653C78.8351 42.4382 78.8942 42.4814 79.0567 42.4814H87.9194C88.2886 42.4814 88.1409 41.2715 88.1409 40.5801V25.5566C88.3625 25.7151 89.9873 28.1206 90.3714 28.6679C90.6373 29.0568 90.8736 29.3737 91.1395 29.7482C91.3906 30.1083 91.5974 30.4396 91.8633 30.7997C92.011 31.0014 92.0848 31.131 92.2325 31.3183C92.3803 31.5199 92.4837 31.664 92.6314 31.88L95.6004 36.158C96.1026 36.8926 96.59 37.5696 97.0923 38.3042C97.5797 39.0244 98.0672 39.7158 98.5841 40.4504C98.7319 40.6665 98.8057 40.7529 98.9534 40.969C99.0568 41.1274 99.0421 41.0986 99.1307 41.2283C99.2045 41.3291 99.2193 41.3867 99.3079 41.5019C99.5 41.79 99.9283 42.4814 100.179 42.4814H109.116C109.293 42.4814 109.338 42.4238 109.338 42.2653V11.3542H99.9431V28.351L95.8515 22.5174C95.172 21.4227 93.3699 19.0172 92.4689 17.6776C92.2178 17.3031 91.9962 16.9718 91.7451 16.6261L88.392 11.8296C88.2739 11.6423 88.1409 11.3398 87.9046 11.3398H78.8203V42.2509L78.8351 42.2653Z" fill="#2B2A29"/>
<path fill-rule="evenodd" clip-rule="evenodd" d="M238.792 23.9551H234.656V17.6605C236.473 17.6605 240.565 17.4877 241.968 18.1503C244.258 19.2306 243.844 22.3995 242.042 23.3357C241.599 23.5662 239.472 23.9695 238.777 23.9695L238.792 23.9551ZM224.671 42.2771C224.671 42.4499 224.73 42.4931 224.893 42.4931H234.435C234.612 42.4931 234.656 42.4355 234.656 42.2771V29.8896C235.956 29.8896 236.591 29.832 237.714 30.4945C238.881 31.1859 240.255 34.1532 241.023 35.4783C242.219 37.5957 243.504 40.0588 244.715 42.133C244.804 42.2915 244.863 42.4931 245.1 42.4931H255.838C256.281 42.4931 255.72 41.8017 255.38 41.1824L254.08 38.7193C253.977 38.532 253.888 38.4024 253.815 38.2439C253.711 38.0135 253.696 37.9702 253.563 37.7542C253.357 37.4229 253.209 37.106 253.032 36.7315C252.426 35.5504 251.082 32.9288 250.255 31.9638L249.546 31.1139C248.526 29.832 247.817 29.5151 246.414 28.9677C246.281 28.9101 246.281 28.9245 246.148 28.8669L245.838 28.7228C246.916 28.7228 249.014 27.7146 249.9 27.1096C252.854 25.0786 253.844 21.8377 253.357 18.3231C253.12 16.6234 252.278 15.0246 251.052 13.8291C248.94 11.7693 245.498 11.3516 241.939 11.3516H224.656V42.2627L224.671 42.2771Z" fill="#2B2A29"/>
<path fill-rule="evenodd" clip-rule="evenodd" d="M128.936 35.3055H125.849V18.3807C127.474 18.3807 129.512 18.3519 130.93 18.6976C133.397 19.3026 134.49 20.671 135.007 23.0765C135.081 23.4078 135.125 23.5518 135.184 23.9407C135.495 26.0869 135.45 29.9184 134.83 31.8917C133.958 34.6285 131.772 35.3055 128.936 35.3055ZM115.938 42.4787H129.911C131.787 42.4787 133.456 42.2915 135.199 41.917L137.474 41.2832C143.456 38.6328 145.317 33.5194 145.317 27.0232C145.317 23.2493 144.697 19.6195 142.599 16.5658C142.363 16.2201 142.082 15.8024 141.802 15.5143L140.901 14.6357C140.532 14.29 140.28 14.1027 139.896 13.7858C137.74 12.043 134.195 11.3516 131.196 11.3516H115.938V42.4931V42.4787Z" fill="#2B2A29"/>
<path fill-rule="evenodd" clip-rule="evenodd" d="M196.119 26.9647C196.119 24.6601 196.518 22.2402 197.448 20.7998C198.201 19.6474 199.339 18.8408 200.653 18.4231C201.274 18.2214 201.54 18.2502 202.263 18.1494C204.199 17.9046 206.37 18.74 207.64 20.1372C208.305 20.8574 208.94 22.3266 209.117 23.2341C209.176 23.5221 209.221 23.8246 209.25 24.0551C209.708 26.691 209.383 31.43 207.995 33.3457C205.572 36.673 199.797 36.5002 197.581 33.2449C196.547 31.7324 196.119 29.4422 196.119 26.9791V26.9647ZM219.339 26.9647C219.339 24.4152 218.999 21.8801 218.216 19.9355C217.419 17.991 216.71 16.6802 215.188 15.1966C213.755 13.7994 212.426 12.8775 210.521 12.1285C209.59 11.7684 208.571 11.4659 207.507 11.2643C202.751 10.3424 196.252 10.7601 192.278 13.6986C191.392 14.3468 191.451 14.2891 190.668 15.0525C190.417 15.2974 190.136 15.5279 189.915 15.7872C188.881 16.9827 188.246 18.0918 187.596 19.5322C187.345 20.094 187.182 20.6701 187.02 21.2319C186.961 21.4479 186.887 21.6208 186.842 21.7936C186.606 22.7587 186.296 24.7609 186.296 25.726C186.296 25.9564 186.311 26.2301 186.296 26.4606C186.222 27.2816 186.222 27.6273 186.311 28.578C186.488 30.7242 186.961 33.1728 187.965 35.0886C188.068 35.2902 188.113 35.4199 188.246 35.6215L190.122 38.2575C190.712 38.9057 191.82 39.8563 192.544 40.3605C193.667 41.1383 195.395 41.9017 196.783 42.233C199.856 42.982 201.702 43.0252 205.1 42.9244C205.498 42.91 206.06 42.8236 206.444 42.7659C207.3 42.6219 208.157 42.5067 208.999 42.2618C212.603 41.1671 214.863 39.5394 216.946 36.529C218.733 33.9363 219.383 30.004 219.383 26.9647H219.339Z" fill="#2B2A29"/>
<path fill-rule="evenodd" clip-rule="evenodd" d="M165.767 35.7559C163.699 35.7559 161.823 34.9781 160.641 33.4224C158.514 30.628 158.573 23.1955 160.553 20.574C162.237 18.3558 164.615 17.8084 167.288 18.2982C167.835 18.399 168.293 18.5862 168.736 18.7879C169.223 19.0184 170.08 19.5945 170.39 19.9546C170.538 20.1275 170.686 20.3003 170.819 20.4876C172.591 22.9939 172.621 27.1711 172.104 30.0807C172 30.6136 171.853 31.233 171.705 31.6651C171.616 31.9244 171.557 32.126 171.439 32.3709C170.804 33.6673 170.375 34.229 169.031 35.0069C168.308 35.4246 166.875 35.7703 165.752 35.7703L165.767 35.7559ZM149.164 26.8974C149.164 30.5272 149.799 33.3936 151.646 36.4185C152.369 37.614 153.847 39.2561 155.028 40.0771C157.746 41.9784 160.139 42.5114 163.359 42.8715C163.935 42.9291 164.792 42.9147 165.353 42.9867C165.9 43.0587 168.647 42.8715 169.179 42.7994C172 42.4105 174.275 41.6759 176.506 40.0483C176.934 39.7314 177.259 39.4433 177.658 39.1264C178.426 38.5359 179.829 36.6777 180.302 35.7703C180.568 35.2661 180.745 34.906 180.966 34.3587C182.547 30.5272 182.813 23.6277 181.055 19.5945C180.257 17.7652 179.43 16.4112 178.012 15.014C176.742 13.7753 175.161 12.7526 173.374 12.0612C170.051 10.7792 166.195 10.5776 162.635 10.9665C162.133 11.0241 161.409 11.1393 160.966 11.2402C159.016 11.7011 158.278 11.9604 156.624 12.7958L154.807 13.9625C154.629 14.1066 154.437 14.2362 154.275 14.3947C153.522 15.1005 153.477 15.0428 152.783 15.8639L151.941 16.9442C151.188 18.0965 150.789 18.8167 150.272 20.1563C150.169 20.4156 150.139 20.6172 150.05 20.8909C149.504 22.4897 149.194 25.1401 149.194 26.8686L149.164 26.8974Z" fill="#2B2A29"/>
<path fill-rule="evenodd" clip-rule="evenodd" d="M0.0147712 19.0445H10.0887V42.4943H19.9263V19.275C19.9263 19.1022 19.9854 19.059 20.1479 19.059H29.9855V11.3672H0V19.059L0.0147712 19.0445Z" fill="#2B2A29"/>
</svg>
