<svg width="80" height="80" viewBox="0 0 80 80" fill="none" xmlns="http://www.w3.org/2000/svg">
<circle opacity="0.5" cx="40" cy="40" r="39.5" stroke="#78C0F7"/>
<path d="M32.0278 52.648C29.9158 52.648 28.0678 52.132 26.4838 51.1C24.8998 50.068 23.6758 48.604 22.8118 46.708C21.9718 44.812 21.5518 42.592 21.5518 40.048C21.5518 36.232 22.4998 33.184 24.3958 30.904C26.2918 28.624 28.8358 27.484 32.0278 27.484C35.2198 27.484 37.7638 28.624 39.6598 30.904C41.5558 33.184 42.5038 36.232 42.5038 40.048C42.5038 43.888 41.5438 46.948 39.6238 49.228C37.7278 51.508 35.1958 52.648 32.0278 52.648ZM29.1118 45.16C29.7838 46.336 30.7438 46.924 31.9918 46.924C33.2638 46.924 34.2358 46.336 34.9078 45.16C35.6038 43.984 35.9518 42.292 35.9518 40.084C35.9518 37.876 35.6038 36.172 34.9078 34.972C34.2358 33.772 33.2758 33.172 32.0278 33.172C30.7558 33.172 29.7838 33.772 29.1118 34.972C28.4398 36.148 28.1038 37.84 28.1038 40.048C28.1038 42.256 28.4398 43.96 29.1118 45.16ZM45.3619 28.06L55.3339 28.06L55.3339 52L48.8899 52L48.8899 33.496L45.3619 33.496L45.3619 28.06Z" fill="url(#paint0_linear_1514_96)"/>
<defs>
<linearGradient id="paint0_linear_1514_96" x1="25.8056" y1="27.5556" x2="53.8801" y2="55.2826" gradientUnits="userSpaceOnUse">
<stop stop-color="#8ECEFF"/>
<stop offset="1" stop-color="#53B3FC"/>
</linearGradient>
</defs>
</svg>
