<svg width="80" height="80" viewBox="0 0 80 80" fill="none" xmlns="http://www.w3.org/2000/svg">
<circle opacity="0.5" cx="40" cy="40" r="39.5" stroke="#78C0F7"/>
<path d="M28.977 52.648C26.865 52.648 25.017 52.132 23.433 51.1C21.849 50.068 20.625 48.604 19.761 46.708C18.921 44.812 18.501 42.592 18.501 40.048C18.501 36.232 19.449 33.184 21.345 30.904C23.241 28.624 25.785 27.484 28.977 27.484C32.169 27.484 34.713 28.624 36.609 30.904C38.505 33.184 39.453 36.232 39.453 40.048C39.453 43.888 38.493 46.948 36.573 49.228C34.677 51.508 32.145 52.648 28.977 52.648ZM26.061 45.16C26.733 46.336 27.693 46.924 28.941 46.924C30.213 46.924 31.185 46.336 31.857 45.16C32.553 43.984 32.901 42.292 32.901 40.084C32.901 37.876 32.553 36.172 31.857 34.972C31.185 33.772 30.225 33.172 28.977 33.172C27.705 33.172 26.733 33.772 26.061 34.972C25.389 36.148 25.053 37.84 25.053 40.048C25.053 42.256 25.389 43.96 26.061 45.16ZM51.6267 36.232C54.3147 36.232 56.4867 36.976 58.1427 38.464C59.8227 39.952 60.6627 41.872 60.6627 44.224C60.6627 46.648 59.8227 48.64 58.1427 50.2C56.4867 51.76 54.3507 52.54 51.7347 52.54C49.1187 52.54 46.9827 51.772 45.3267 50.236C43.6707 48.676 42.8427 46.684 42.8427 44.26L48.9627 44.26C48.9627 45.076 49.2147 45.748 49.7187 46.276C50.2467 46.78 50.9187 47.032 51.7347 47.032C52.5267 47.032 53.1747 46.768 53.6787 46.24C54.1827 45.712 54.4347 45.04 54.4347 44.224C54.4347 43.792 54.3627 43.396 54.2187 43.036C54.0747 42.676 53.8707 42.376 53.6067 42.136C53.3667 41.872 53.0547 41.68 52.6707 41.56C52.3107 41.416 51.9147 41.344 51.4827 41.344L44.0307 41.344L43.4187 40.552L44.7507 28.06L58.9707 28.06L58.9707 33.532L49.7187 33.532L49.3947 36.232L51.6267 36.232Z" fill="url(#paint0_linear_1514_2511)"/>
<defs>
<linearGradient id="paint0_linear_1514_2511" x1="23.875" y1="27.5556" x2="51.6108" y2="59.9941" gradientUnits="userSpaceOnUse">
<stop stop-color="#8ECEFF"/>
<stop offset="1" stop-color="#53B3FC"/>
</linearGradient>
</defs>
</svg>
