<svg width="80" height="80" viewBox="0 0 80 80" fill="none" xmlns="http://www.w3.org/2000/svg">
<circle opacity="0.5" cx="40" cy="40" r="39.5" stroke="#78C0F7"/>
<path d="M28.9595 52.648C26.8475 52.648 24.9995 52.132 23.4155 51.1C21.8315 50.068 20.6075 48.604 19.7435 46.708C18.9035 44.812 18.4835 42.592 18.4835 40.048C18.4835 36.232 19.4315 33.184 21.3275 30.904C23.2235 28.624 25.7675 27.484 28.9595 27.484C32.1515 27.484 34.6955 28.624 36.5915 30.904C38.4875 33.184 39.4355 36.232 39.4355 40.048C39.4355 43.888 38.4755 46.948 36.5555 49.228C34.6595 51.508 32.1275 52.648 28.9595 52.648ZM26.0435 45.16C26.7155 46.336 27.6755 46.924 28.9235 46.924C30.1955 46.924 31.1675 46.336 31.8395 45.16C32.5355 43.984 32.8835 42.292 32.8835 40.084C32.8835 37.876 32.5355 36.172 31.8395 34.972C31.1675 33.772 30.2075 33.172 28.9595 33.172C27.6875 33.172 26.7155 33.772 26.0435 34.972C25.3715 36.148 25.0355 37.84 25.0355 40.048C25.0355 42.256 25.3715 43.96 26.0435 45.16ZM53.6971 46.312L60.3571 46.312L60.3571 52L42.5371 52L42.5371 50.56C45.9211 46.552 48.3211 43.66 49.7371 41.884C51.1771 40.084 52.1611 38.716 52.6891 37.78C53.2171 36.844 53.4811 36.016 53.4811 35.296C53.4811 34.648 53.2891 34.132 52.9051 33.748C52.5211 33.34 52.0291 33.136 51.4291 33.136C51.1411 33.136 50.8771 33.172 50.6371 33.244C50.4211 33.292 50.2291 33.388 50.0611 33.532C49.8931 33.676 49.7491 33.844 49.6291 34.036C49.5091 34.204 49.4131 34.42 49.3411 34.684C49.2691 34.924 49.2331 35.188 49.2331 35.476L49.2331 35.944L42.9331 35.944L42.9331 35.476C42.9331 33.052 43.6771 31.108 45.1651 29.644C46.6771 28.18 48.7291 27.448 51.3211 27.448C53.8651 27.448 55.9291 28.156 57.5131 29.572C59.1211 30.988 59.9251 32.824 59.9251 35.08C59.9251 36.616 59.5051 38.152 58.6651 39.688C57.8491 41.224 56.1931 43.432 53.6971 46.312Z" fill="url(#paint0_linear_1514_1173)"/>
<defs>
<linearGradient id="paint0_linear_1514_1173" x1="23.875" y1="27.5556" x2="51.6108" y2="59.9941" gradientUnits="userSpaceOnUse">
<stop stop-color="#8ECEFF"/>
<stop offset="1" stop-color="#53B3FC"/>
</linearGradient>
</defs>
</svg>
