<svg width="80" height="80" viewBox="0 0 80 80" fill="none" xmlns="http://www.w3.org/2000/svg">
<circle opacity="0.5" cx="40" cy="40" r="39.5" stroke="#78C0F7"/>
<path d="M28.143 52.648C26.031 52.648 24.183 52.132 22.599 51.1C21.015 50.068 19.791 48.604 18.927 46.708C18.087 44.812 17.667 42.592 17.667 40.048C17.667 36.232 18.615 33.184 20.511 30.904C22.407 28.624 24.951 27.484 28.143 27.484C31.335 27.484 33.879 28.624 35.775 30.904C37.671 33.184 38.619 36.232 38.619 40.048C38.619 43.888 37.659 46.948 35.739 49.228C33.843 51.508 31.311 52.648 28.143 52.648ZM25.227 45.16C25.899 46.336 26.859 46.924 28.107 46.924C29.379 46.924 30.351 46.336 31.023 45.16C31.719 43.984 32.067 42.292 32.067 40.084C32.067 37.876 31.719 36.172 31.023 34.972C30.351 33.772 29.391 33.172 28.143 33.172C26.871 33.172 25.899 33.772 25.227 34.972C24.555 36.148 24.219 37.84 24.219 40.048C24.219 42.256 24.555 43.96 25.227 45.16ZM52.9167 35.836C54.4767 35.836 55.8687 36.172 57.0927 36.844C58.3407 37.492 59.3007 38.416 59.9727 39.616C60.6687 40.816 61.0167 42.172 61.0167 43.684C61.0167 45.412 60.6207 46.948 59.8287 48.292C59.0367 49.636 57.9207 50.68 56.4807 51.424C55.0407 52.168 53.3967 52.54 51.5487 52.54C48.7167 52.54 46.4127 51.724 44.6367 50.092C42.8847 48.46 42.0087 46.336 42.0087 43.72C42.0087 41.272 42.9207 38.524 44.7447 35.476L49.1367 28.06L56.0487 28.06C55.4967 29.02 54.6807 30.388 53.6007 32.164C52.5447 33.94 51.7887 35.212 51.3327 35.98C51.8367 35.884 52.3647 35.836 52.9167 35.836ZM51.5127 47.068C52.4967 47.068 53.3007 46.756 53.9247 46.132C54.5487 45.508 54.8607 44.692 54.8607 43.684C54.8607 42.676 54.5487 41.86 53.9247 41.236C53.3007 40.612 52.4967 40.3 51.5127 40.3C50.5527 40.3 49.7487 40.612 49.1007 41.236C48.4767 41.86 48.1647 42.676 48.1647 43.684C48.1647 44.356 48.3087 44.944 48.5967 45.448C48.8847 45.952 49.2807 46.348 49.7847 46.636C50.3127 46.924 50.8887 47.068 51.5127 47.068Z" fill="url(#paint0_linear_1514_5369)"/>
<defs>
<linearGradient id="paint0_linear_1514_5369" x1="23.0278" y1="27.5556" x2="50.6626" y2="60.5942" gradientUnits="userSpaceOnUse">
<stop stop-color="#8ECEFF"/>
<stop offset="1" stop-color="#53B3FC"/>
</linearGradient>
</defs>
</svg>
