<svg width="80" height="80" viewBox="0 0 80 80" fill="none" xmlns="http://www.w3.org/2000/svg">
<circle opacity="0.5" cx="40" cy="40" r="39.5" stroke="#78C0F7"/>
<path d="M28.9243 52.648C26.8123 52.648 24.9643 52.132 23.3803 51.1C21.7963 50.068 20.5723 48.604 19.7083 46.708C18.8683 44.812 18.4483 42.592 18.4483 40.048C18.4483 36.232 19.3963 33.184 21.2923 30.904C23.1883 28.624 25.7323 27.484 28.9243 27.484C32.1163 27.484 34.6603 28.624 36.5563 30.904C38.4523 33.184 39.4003 36.232 39.4003 40.048C39.4003 43.888 38.4403 46.948 36.5203 49.228C34.6243 51.508 32.0923 52.648 28.9243 52.648ZM26.0083 45.16C26.6803 46.336 27.6403 46.924 28.8883 46.924C30.1603 46.924 31.1323 46.336 31.8043 45.16C32.5003 43.984 32.8483 42.292 32.8483 40.084C32.8483 37.876 32.5003 36.172 31.8043 34.972C31.1323 33.772 30.1723 33.172 28.9243 33.172C27.6523 33.172 26.6803 33.772 26.0083 34.972C25.3363 36.148 25.0003 37.84 25.0003 40.048C25.0003 42.256 25.3363 43.96 26.0083 45.16ZM54.9579 36.844C56.6859 37.276 58.0539 38.152 59.0619 39.472C60.0939 40.792 60.6099 42.364 60.6099 44.188C60.6099 46.636 59.7579 48.64 58.0539 50.2C56.3499 51.76 54.1899 52.54 51.5739 52.54C49.0059 52.54 46.9059 51.784 45.2739 50.272C43.6659 48.736 42.8259 46.72 42.7539 44.224L48.8739 44.224C48.9219 45.088 49.1859 45.772 49.6659 46.276C50.1699 46.78 50.8059 47.032 51.5739 47.032C52.4139 47.032 53.0859 46.768 53.5899 46.24C54.1179 45.688 54.3819 44.98 54.3819 44.116C54.3819 43.228 54.1059 42.532 53.5539 42.028C53.0019 41.524 52.2579 41.272 51.3219 41.272L47.4699 41.272L47.4699 39.94L51.3939 33.532L43.3299 33.532L43.3299 28.06L59.7819 28.06L59.7819 29.176L54.9579 36.844Z" fill="url(#paint0_linear_1514_2616)"/>
<defs>
<linearGradient id="paint0_linear_1514_2616" x1="23.875" y1="27.5556" x2="51.6108" y2="59.9941" gradientUnits="userSpaceOnUse">
<stop stop-color="#8ECEFF"/>
<stop offset="1" stop-color="#53B3FC"/>
</linearGradient>
</defs>
</svg>
