<svg width="80" height="80" viewBox="0 0 80 80" fill="none" xmlns="http://www.w3.org/2000/svg">
<circle opacity="0.5" cx="40" cy="40" r="39.5" stroke="#78C0F7"/>
<path d="M28.0903 52.648C25.9783 52.648 24.1303 52.132 22.5463 51.1C20.9623 50.068 19.7383 48.604 18.8743 46.708C18.0343 44.812 17.6143 42.592 17.6143 40.048C17.6143 36.232 18.5623 33.184 20.4583 30.904C22.3543 28.624 24.8983 27.484 28.0903 27.484C31.2823 27.484 33.8263 28.624 35.7223 30.904C37.6183 33.184 38.5663 36.232 38.5663 40.048C38.5663 43.888 37.6063 46.948 35.6863 49.228C33.7903 51.508 31.2583 52.648 28.0903 52.648ZM25.1743 45.16C25.8463 46.336 26.8063 46.924 28.0543 46.924C29.3263 46.924 30.2983 46.336 30.9703 45.16C31.6663 43.984 32.0143 42.292 32.0143 40.084C32.0143 37.876 31.6663 36.172 30.9703 34.972C30.2983 33.772 29.3383 33.172 28.0903 33.172C26.8183 33.172 25.8463 33.772 25.1743 34.972C24.5023 36.148 24.1663 37.84 24.1663 40.048C24.1663 42.256 24.5023 43.96 25.1743 45.16ZM60.9279 42.352L60.9279 47.716L58.7319 47.716L58.7319 52L52.6119 52L52.6119 47.716L41.0919 47.716L41.0919 46.528L48.7599 28.06L55.1319 28.06L49.1919 42.352L53.0439 42.352L54.4479 37.06L58.7319 37.06L58.7319 42.352L60.9279 42.352Z" fill="url(#paint0_linear_1514_4066)"/>
<defs>
<linearGradient id="paint0_linear_1514_4066" x1="23.0278" y1="27.5556" x2="50.6626" y2="60.5942" gradientUnits="userSpaceOnUse">
<stop stop-color="#8ECEFF"/>
<stop offset="1" stop-color="#53B3FC"/>
</linearGradient>
</defs>
</svg>
