<svg width="117" height="117" viewBox="0 0 117 117" fill="none" xmlns="http://www.w3.org/2000/svg">
<g opacity="0.5">
<path d="M58.4898 111.14C29.4566 111.14 5.83984 87.5231 5.83984 58.4898C5.83984 29.4566 29.4566 5.83984 58.4898 5.83984C87.523 5.83984 111.14 29.4604 111.14 58.4898C111.14 87.5193 87.5193 111.14 58.4898 111.14ZM58.4898 6.21274C29.6638 6.21274 6.20897 29.6638 6.20897 58.4898C6.20897 87.3159 29.6638 110.771 58.4898 110.771C87.3159 110.771 110.771 87.3197 110.771 58.4898C110.771 29.66 87.3159 6.21274 58.4898 6.21274Z" fill="#78C0F7"/>
<path d="M58.5 117C26.2409 117 0 90.7591 0 58.5C0 26.2409 26.2409 0 58.5 0C90.7591 0 117 26.2451 117 58.5C117 90.755 90.7549 117 58.5 117ZM58.5 0.414326C26.4711 0.414326 0.410136 26.4711 0.410136 58.5C0.410136 90.529 26.4711 116.59 58.5 116.59C90.5289 116.59 116.59 90.5331 116.59 58.5C116.59 26.4669 90.5289 0.414326 58.5 0.414326Z" fill="#78C0F7"/>
<path d="M58.4954 105.299C49.2394 105.298 40.1915 102.553 32.4958 97.4101C24.8 92.2672 18.8021 84.9578 15.2605 76.4061C11.719 67.8545 10.7927 58.4447 12.599 49.3666C14.4052 40.2886 18.8627 31.95 25.408 25.4053C31.9533 18.8606 40.2922 14.4037 49.3704 12.5982C58.4486 10.7927 67.8584 11.7197 76.4097 15.262C84.9611 18.8043 92.27 24.8028 97.4123 32.4989C102.555 40.1951 105.299 49.2432 105.299 58.4992C105.286 70.908 100.35 82.8046 91.5758 91.5785C82.8011 100.352 70.9041 105.287 58.4954 105.299ZM58.4954 12.0814C49.3137 12.0806 40.338 14.8026 32.7034 19.9032C25.0688 25.0038 19.1182 32.2539 15.6042 40.7365C12.0901 49.2191 11.1705 58.5533 12.9616 67.5586C14.7526 76.5639 19.174 84.8358 25.6664 91.3282C32.1588 97.8206 40.4307 102.242 49.436 104.033C58.4413 105.824 67.7755 104.904 76.2581 101.39C84.7408 97.8764 91.9908 91.9258 97.0914 84.2912C102.192 76.6566 104.914 67.6809 104.913 58.4992C104.899 46.1928 100.004 34.3946 91.302 25.6926C82.6 16.9907 70.8018 12.0957 58.4954 12.0814Z" fill="#78C0F7"/>
<path d="M58.5008 99.4508C50.4016 99.4508 42.4844 97.0491 35.7502 92.5494C29.016 88.0498 23.7673 81.6543 20.6679 74.1717C17.5685 66.689 16.7576 58.4553 18.3376 50.5118C19.9177 42.5683 23.8178 35.2717 29.5448 29.5448C35.2717 23.8178 42.5683 19.9177 50.5118 18.3376C58.4554 16.7576 66.689 17.5685 74.1717 20.6679C81.6543 23.7673 88.0498 29.016 92.5495 35.7502C97.0491 42.4844 99.4508 50.4016 99.4508 58.5008C99.4401 69.3581 95.1223 79.7677 87.445 87.445C79.7677 95.1223 69.3581 99.4401 58.5008 99.4508ZM58.5008 17.9164C50.4739 17.9164 42.6274 20.2967 35.9533 24.7561C29.2792 29.2156 24.0774 35.554 21.0057 42.9698C17.934 50.3856 17.1303 58.5458 18.6962 66.4184C20.2622 74.291 24.1275 81.5224 29.8033 87.1982C35.4791 92.8741 42.7106 96.7393 50.5832 98.3053C58.4557 99.8713 66.6159 99.0676 74.0317 95.9958C81.4476 92.9241 87.786 87.7223 92.2454 81.0482C96.7049 74.3742 99.0851 66.5276 99.0851 58.5008C99.0716 47.7416 94.7913 37.4271 87.1831 29.8196C79.5749 22.212 69.2599 17.9327 58.5008 17.9201V17.9164Z" fill="#78C0F7"/>
<path d="M58.5102 93.6102C51.568 93.6102 44.7818 91.5516 39.0097 87.6947C33.2375 83.8379 28.7386 78.356 26.082 71.9423C23.4254 65.5287 22.7303 58.4712 24.0846 51.6625C25.439 44.8538 28.7819 38.5995 33.6907 33.6907C38.5995 28.7819 44.8538 25.439 51.6625 24.0846C58.4712 22.7303 65.5287 23.4254 71.9423 26.082C78.356 28.7386 83.8379 33.2375 87.6948 39.0097C91.5516 44.7818 93.6102 51.568 93.6102 58.5102C93.5993 67.8159 89.8978 76.7374 83.3177 83.3176C76.7375 89.8978 67.8159 93.5993 58.5102 93.6102ZM58.5102 23.7485C51.6341 23.7485 44.9125 25.7875 39.1953 29.6077C33.4782 33.4279 29.0222 38.8576 26.391 45.2103C23.7599 51.563 23.0716 58.5533 24.4133 65.2972C25.755 72.041 29.0664 78.2356 33.9287 83.0974C38.791 87.9593 44.9859 91.2701 51.7299 92.6111C58.4739 93.9521 65.4641 93.2632 71.8166 90.6314C78.169 87.9996 83.5984 83.5431 87.418 77.8256C91.2376 72.108 93.276 65.3862 93.2753 58.5102C93.2644 49.2935 89.5981 40.4575 83.0806 33.9407C76.5632 27.4239 67.7268 23.7584 58.5102 23.7485Z" fill="#78C0F7"/>
<path d="M58.5031 87.75C52.7179 87.7506 47.0624 86.0357 42.2519 82.822C37.4413 79.6084 33.6918 75.0404 31.4774 69.6957C29.2631 64.351 28.6834 58.4697 29.8117 52.7955C30.9399 47.1214 33.7255 41.9092 37.816 37.8182C41.9066 33.7272 47.1184 30.9411 52.7925 29.8123C58.4665 28.6834 64.3479 29.2625 69.6928 31.4762C75.0377 33.69 79.6061 37.439 82.8203 42.2493C86.0345 47.0595 87.75 52.7148 87.75 58.5C87.7417 66.2545 84.6578 73.6891 79.1749 79.1726C73.6919 84.6562 66.2576 87.7409 58.5031 87.75ZM58.5031 29.5599C52.7784 29.5592 47.1821 31.2563 42.4219 34.4364C37.6617 37.6165 33.9515 42.1368 31.7605 47.4256C29.5695 52.7144 28.996 58.5342 30.1127 64.1489C31.2294 69.7637 33.986 74.9212 38.034 78.9691C42.082 83.0171 47.2395 85.7738 52.8542 86.8904C58.469 88.0071 64.2888 87.4337 69.5776 85.2426C74.8664 83.0516 79.3867 79.3414 82.5668 74.5812C85.7469 69.821 87.4439 64.2247 87.4433 58.5C87.4342 50.8274 84.3822 43.4716 78.9569 38.0463C73.5315 32.6209 66.1758 29.569 58.5031 29.5599Z" fill="#78C0F7"/>
<path d="M58.4898 81.8898C53.8618 81.8898 49.3376 80.5175 45.4895 77.9462C41.6414 75.375 38.6422 71.7204 36.8711 67.4446C35.1 63.1688 34.6366 58.4639 35.5395 53.9247C36.4424 49.3856 38.671 45.2161 41.9436 41.9435C45.2161 38.671 49.3856 36.4424 53.9247 35.5395C58.4639 34.6366 63.1688 35.1 67.4446 36.8711C71.7204 38.6422 75.375 41.6414 77.9462 45.4895C80.5175 49.3376 81.8898 53.8618 81.8898 58.4899C81.8832 64.6939 79.4157 70.6419 75.0288 75.0288C70.6419 79.4157 64.6939 81.8832 58.4898 81.8898ZM58.4898 35.365C53.9155 35.365 49.4439 36.7215 45.6406 39.2629C41.8372 41.8043 38.8728 45.4165 37.1224 49.6427C35.3721 53.8689 34.9142 58.5192 35.8068 63.0056C36.6994 67.492 38.9024 71.613 42.1371 74.8473C45.3719 78.0816 49.4931 80.2841 53.9796 81.1762C58.4661 82.0682 63.1163 81.6099 67.3423 79.859C71.5683 78.1081 75.1801 75.1433 77.7211 71.3396C80.262 67.5359 81.618 63.0642 81.6174 58.4899C81.6101 52.3585 79.171 46.4805 74.8352 42.1453C70.4995 37.81 64.6211 35.3716 58.4898 35.365Z" fill="#78C0F7"/>
</g>
</svg>
