<svg width="80" height="80" viewBox="0 0 80 80" fill="none" xmlns="http://www.w3.org/2000/svg">
<g clip-path="url(#clip0_1502_6045)">
<g filter="url(#filter0_i_1502_6045)">
<path d="M40 80C62.0914 80 80 62.0914 80 40C80 17.9086 62.0914 0 40 0C17.9086 0 0 17.9086 0 40C0 62.0914 17.9086 80 40 80Z" fill="#FDFEFF"/>
</g>
<path d="M40.0015 79.3156C61.7141 79.3156 79.3156 61.7141 79.3156 40.0015C79.3156 18.289 61.7141 0.6875 40.0015 0.6875C18.289 0.6875 0.6875 18.289 0.6875 40.0015C0.6875 61.7141 18.289 79.3156 40.0015 79.3156Z" stroke="white" stroke-width="1.37192"/>
<mask id="mask0_1502_6045" style="mask-type:alpha" maskUnits="userSpaceOnUse" x="37" y="19" width="28" height="30">
<path d="M64.4784 39.698C64.356 39.7872 64.2457 39.9262 64.1112 39.958C56.0346 41.8501 47.955 43.7332 39.8769 45.6179C39.1984 45.7766 38.5198 45.9292 37.8336 46.0849C37.7927 45.9715 37.7565 45.8718 37.7188 45.7705C37.7188 44.9922 37.7188 44.2138 37.7188 43.4355C41.3731 42.7237 45.0291 42.0104 48.6835 41.2985C52.1429 40.6245 55.6009 39.9489 59.0603 39.2733C60.8225 38.9287 62.5832 38.5811 64.3455 38.2366C64.3893 38.2275 64.4346 38.232 64.4784 38.2305C64.4784 38.7186 64.4784 39.2083 64.4784 39.698Z" fill="#78C0F7"/>
<path d="M37.7218 22.3462C37.758 22.2465 37.7943 22.1468 37.8366 22.0273C38.7162 22.1196 39.5959 22.2118 40.4754 22.307C41.8205 22.452 43.1656 22.6002 44.5107 22.7467C46.0765 22.9175 47.6422 23.0884 49.208 23.2561C50.7526 23.4223 52.2971 23.584 53.8402 23.7503C55.3848 23.9166 56.9278 24.0888 58.4709 24.2551C59.8054 24.4002 61.14 24.5407 62.4744 24.6843C63.0594 24.7478 63.6442 24.8068 64.2261 24.8869C64.3168 24.8989 64.3938 25.0138 64.4785 25.0817C64.4785 25.5714 64.4785 26.0611 64.4785 26.5493C63.3042 26.4737 62.1284 26.4027 60.9541 26.3226C59.5137 26.2244 58.0735 26.117 56.6331 26.0143C54.8497 25.8873 53.0649 25.7604 51.2815 25.6364C49.8745 25.5383 48.4658 25.4445 47.0589 25.3463C45.2966 25.2224 43.5359 25.0969 41.7737 24.9715C40.4225 24.8748 39.0699 24.778 37.7188 24.6813C37.7218 23.9029 37.7218 23.1246 37.7218 22.3462Z" fill="#78C0F7"/>
<path d="M40.2592 48.6369C40.0386 48.5675 39.8134 48.5146 39.6003 48.4284C38.8975 48.1428 38.426 47.6214 38.0859 46.9125C46.7595 44.783 55.4014 42.6596 64.1157 40.5195C63.6638 41.3009 63.0895 41.845 62.42 42.2969C61.4391 42.9603 60.3207 43.2792 59.1978 43.5951C53.559 45.1865 47.9232 46.7886 42.2844 48.383C41.9459 48.4783 41.6013 48.5523 41.2582 48.6369C40.9257 48.6369 40.5917 48.6369 40.2592 48.6369Z" fill="#78C0F7"/>
<path d="M41.8597 19.0742C42.5141 19.186 43.167 19.3024 43.8214 19.4067C45.8587 19.7316 47.896 20.0505 49.9333 20.3739C51.9706 20.6958 54.0078 21.0133 56.0437 21.3472C57.7273 21.6238 59.4184 21.8746 61.0869 22.2253C62.2401 22.4686 63.2285 23.0716 63.9479 24.0449C63.9918 24.1054 64.0295 24.1704 64.1157 24.3034C55.4119 23.2545 46.7761 22.2133 38.0859 21.1659C38.5106 20.2515 39.1091 19.5971 40.031 19.2752C40.2577 19.1966 40.4935 19.1407 40.7262 19.0742C41.1041 19.0742 41.4819 19.0742 41.8597 19.0742Z" fill="#78C0F7"/>
<path d="M37.7188 29.1484C39.9299 29.1484 42.1409 29.1484 44.3762 29.1484C44.3762 30.0099 44.3762 30.7928 44.3762 31.6255C42.1575 31.689 39.9374 31.754 37.7188 31.8174C37.7188 30.9273 37.7188 30.0371 37.7188 29.1484Z" fill="#78C0F7"/>
<path d="M37.7202 32.6881C38.7299 32.6549 39.7394 32.6277 40.749 32.5884C41.9474 32.5415 43.146 32.484 44.3732 32.4297C44.3732 33.2322 44.3732 34.0257 44.3732 34.8523C44.0195 34.8856 43.6583 34.9234 43.2956 34.9521C41.5243 35.0941 39.753 35.2317 37.9802 35.3737C37.8926 35.3813 37.8064 35.407 37.7188 35.4236C37.7202 34.5123 37.7202 33.5994 37.7202 32.6881Z" fill="#78C0F7"/>
<path d="M37.7188 39.827C38.4865 39.7273 39.2558 39.6321 40.022 39.5248C41.4684 39.3208 42.9147 39.1092 44.3973 38.8945C44.3973 39.6668 44.4019 40.4195 44.3882 41.1721C44.3868 41.2356 44.2613 41.3383 44.1812 41.3535C42.4613 41.6739 40.7399 41.9837 39.0185 42.2995C38.5832 42.3797 38.1525 42.4749 37.7188 42.5625C37.7188 41.6512 37.7188 40.7398 37.7188 39.827Z" fill="#78C0F7"/>
<path d="M37.7188 36.2897C39.9268 36.0827 42.1333 35.8741 44.3716 35.6641C44.3716 36.4817 44.3716 37.2737 44.3716 38.0868C43.4059 38.2182 42.4417 38.3528 41.4775 38.4812C40.291 38.6399 39.1046 38.7956 37.9182 38.9497C37.8517 38.9588 37.7852 38.9557 37.7188 38.9588C37.7188 38.0701 37.7188 37.1799 37.7188 36.2897Z" fill="#78C0F7"/>
<path d="M37.7202 25.6133C38.4291 25.6405 39.1379 25.6571 39.8452 25.6949C41.3081 25.7735 42.7696 25.8642 44.2311 25.9503C44.2734 25.9533 44.3157 25.9624 44.3777 25.9714C44.3777 26.7725 44.3777 27.566 44.3777 28.376C42.15 28.3443 39.9343 28.3125 37.7188 28.2824C37.7202 27.3921 37.7202 26.5019 37.7202 25.6133Z" fill="#78C0F7"/>
<path d="M64.4763 33.2217C62.9513 33.3471 61.4264 33.4741 59.9014 33.5995C59.2168 33.6554 58.5322 33.7053 57.8203 33.7612C57.8203 33.1189 57.8203 32.4947 57.8203 31.8464C60.0465 31.7481 62.2606 31.6514 64.4763 31.5547C64.4763 32.1093 64.4763 32.6655 64.4763 33.2217Z" fill="#78C0F7"/>
<path d="M64.4775 28.7513C63.5903 28.7483 62.7032 28.7529 61.816 28.7408C60.6281 28.7241 59.4402 28.697 58.2523 28.6728C58.1103 28.6697 57.9682 28.6591 57.8125 28.6531C57.8125 28.0153 57.8125 27.4078 57.8125 26.7745C58.0618 26.7745 58.3127 26.7624 58.5622 26.776C60.5012 26.8818 62.4402 26.9936 64.3808 27.1024C64.4125 27.104 64.4458 27.0904 64.4775 27.0844C64.4775 27.639 64.4775 28.1952 64.4775 28.7513Z" fill="#78C0F7"/>
<path d="M64.4777 35.4224C63.5332 35.5539 62.5886 35.6899 61.6425 35.8168C60.4984 35.971 59.3543 36.1206 58.2102 36.2703C58.0893 36.2854 57.9669 36.2884 57.8203 36.3005C57.8203 35.6688 57.8203 35.0522 57.8203 34.4008C58.4369 34.3418 59.0536 34.2829 59.6687 34.2224C61.2707 34.0667 62.8742 33.9095 64.4763 33.7539C64.4777 34.31 64.4777 34.8663 64.4777 35.4224Z" fill="#78C0F7"/>
<path d="M64.4793 37.6919C63.7493 37.8144 63.0163 37.9292 62.2879 38.0592C60.8053 38.3236 59.3256 38.5972 57.8203 38.8723C57.8203 38.2345 57.8203 37.6179 57.8203 36.9589C58.4128 36.8713 59.0098 36.7806 59.6097 36.6929C61.0788 36.4799 62.5493 36.2682 64.0184 36.0582C64.171 36.037 64.3266 36.034 64.4808 36.0234C64.4793 36.5796 64.4793 37.1357 64.4793 37.6919Z" fill="#78C0F7"/>
<path d="M64.4771 31.0185C62.5018 31.0744 60.5249 31.1303 58.5496 31.1848C58.3169 31.1908 58.0857 31.1862 57.8242 31.1862C57.8242 30.5742 57.8242 29.95 57.8242 29.3516C60.0429 29.3516 62.26 29.3516 64.4771 29.3516C64.4771 29.9062 64.4771 30.4624 64.4771 31.0185Z" fill="#78C0F7"/>
</mask>
<g mask="url(#mask0_1502_6045)">
<rect x="36.8008" y="16.8008" width="30.4" height="32.8" fill="url(#paint0_linear_1502_6045)"/>
</g>
<path d="M36.8073 38.6016C36.8073 39.2409 36.8073 39.8378 36.8073 40.4635C29.7795 42.0988 22.7564 43.7341 15.6576 45.3875C15.6395 44.922 15.6168 44.4958 15.6092 44.0696C15.6017 43.6374 15.6078 43.2036 15.6078 42.7351C22.6657 41.3583 29.7145 39.9845 36.8073 38.6016Z" fill="black"/>
<path d="M15.6562 24.0014C15.6562 23.0991 15.6562 22.2391 15.6562 21.3398C22.7293 22.1031 29.748 22.8588 36.7938 23.6189C36.7938 24.225 36.7938 24.828 36.7938 25.481C29.7435 24.9867 22.6976 24.4941 15.6562 24.0014Z" fill="black"/>
<path d="M15.9688 46.2135C22.942 44.5028 29.864 42.804 36.8192 41.0977C36.8192 41.6871 36.8297 42.2508 36.8071 42.8145C36.8041 42.8916 36.6468 42.999 36.5441 43.0277C34.8726 43.5113 33.198 43.9859 31.5234 44.4604C27.6831 45.547 23.8413 46.6337 20.001 47.7189C19.2756 47.9244 18.538 48.0105 17.7974 47.8216C16.942 47.6024 16.3798 47.0342 15.9688 46.2135Z" fill="black"/>
<path d="M36.8062 21.1395C36.8062 21.7591 36.8062 22.3576 36.8062 22.9848C29.8631 22.149 22.9366 21.3148 15.9648 20.4745C16.4907 19.3848 17.2525 18.682 18.4192 18.4629C19.3185 18.2936 20.189 18.4961 21.0641 18.6321C23.2464 18.9722 25.4258 19.3229 27.6066 19.6674C29.919 20.0332 32.2313 20.3974 34.5452 20.7631C35.192 20.8659 35.8389 20.9672 36.4842 21.0715C36.5916 21.0896 36.6974 21.1168 36.8062 21.1395Z" fill="black"/>
<path d="M15.6211 31.1318C15.6211 30.2325 15.6211 29.371 15.6211 28.5156C17.8397 28.5156 20.0418 28.5156 22.2604 28.5156C22.2604 29.3317 22.2604 30.1056 22.2604 30.9232C20.0599 30.9927 17.8579 31.0607 15.6211 31.1318Z" fill="black"/>
<path d="M15.6172 41.8312C15.6172 40.9245 15.6172 40.0614 15.6172 39.1682C17.8283 38.8478 20.0303 38.5305 22.2565 38.207C22.2565 39.0186 22.2565 39.803 22.2565 40.6191C20.0575 41.0212 17.857 41.4232 15.6172 41.8312Z" fill="black"/>
<path d="M22.2622 31.7422C22.2622 32.5538 22.2622 33.3261 22.2622 34.1543C20.0617 34.3341 17.8566 34.514 15.6289 34.6953C15.6289 33.7946 15.6289 32.9256 15.6289 32.0339C17.8355 31.9372 20.0285 31.8405 22.2622 31.7422Z" fill="black"/>
<path d="M15.6211 38.2638C15.6211 37.3781 15.6211 36.5151 15.6211 35.6008C17.8247 35.3937 20.0281 35.1866 22.2559 34.9766C22.2559 35.7851 22.2559 36.568 22.2559 37.3872C20.0508 37.6788 17.8443 37.9705 15.6211 38.2638Z" fill="black"/>
<path d="M22.262 25.2818C22.262 26.0933 22.262 26.8656 22.262 27.6893C20.0433 27.6485 17.8413 27.6077 15.6211 27.5669C15.6211 26.6691 15.6211 25.8076 15.6211 24.9023C17.8307 25.0278 20.0312 25.1532 22.262 25.2818Z" fill="black"/>
<path d="M35.681 35.6203C35.681 35.0083 35.675 34.446 35.6886 33.8838C35.6901 33.8188 35.7869 33.7085 35.8518 33.6995C36.1571 33.6556 36.4654 33.6405 36.7949 33.6133C36.7949 34.233 36.7949 34.836 36.7949 35.4647C36.4397 35.513 36.083 35.5629 35.681 35.6203Z" fill="black"/>
<path d="M35.7031 33.0629C35.7031 32.4282 35.7031 31.8116 35.7031 31.1602C36.0688 31.1602 36.4285 31.1602 36.8033 31.1602C36.8033 31.745 36.8033 32.3405 36.8033 32.9707C36.4422 33.0009 36.084 33.0312 35.7031 33.0629Z" fill="black"/>
<path d="M35.6817 38.1717C35.6817 37.5581 35.6727 36.9944 35.6924 36.4336C35.6954 36.3626 35.8314 36.2523 35.9205 36.2342C36.2002 36.1767 36.4873 36.1526 36.7957 36.1133C36.7957 36.7269 36.7957 37.3284 36.7957 37.9616C36.4481 38.0281 36.0944 38.0946 35.6817 38.1717Z" fill="black"/>
<path d="M36.8079 27.9471C36.4225 27.9471 36.0719 27.9471 35.7031 27.9471C35.7031 27.3123 35.7031 26.7094 35.7031 26.0625C36.0779 26.0806 36.4376 26.0988 36.8079 26.1169C36.8079 26.7471 36.8079 27.3426 36.8079 27.9471Z" fill="black"/>
<path d="M35.7031 28.625C36.081 28.625 36.4316 28.625 36.8019 28.625C36.8019 29.2356 36.8019 29.8311 36.8019 30.4643C36.4422 30.4643 36.0825 30.4643 35.7031 30.4643C35.7031 29.8704 35.7031 29.2643 35.7031 28.625Z" fill="black"/>
<path d="M19.9986 58.6685C20.413 58.7825 20.739 58.9903 20.9768 59.292C21.2146 59.5869 21.3334 59.9623 21.3334 60.4182C21.3334 61.0283 21.0991 61.4975 20.6303 61.826C20.1684 62.1545 19.4925 62.3188 18.6026 62.3188H15.1992V55.2797H18.3988C19.214 55.2797 19.8423 55.4406 20.2839 55.7623C20.7322 56.0841 20.9564 56.5299 20.9564 57.0998C20.9564 57.4685 20.8681 57.7869 20.6915 58.0551C20.5217 58.3232 20.2907 58.5277 19.9986 58.6685ZM16.2182 56.0942V58.3467H18.3071C18.8302 58.3467 19.231 58.2529 19.5095 58.0651C19.7948 57.8707 19.9374 57.5892 19.9374 57.2204C19.9374 56.8517 19.7948 56.5735 19.5095 56.3858C19.231 56.1914 18.8302 56.0942 18.3071 56.0942H16.2182ZM18.5618 61.5042C19.1392 61.5042 19.574 61.4104 19.8661 61.2227C20.1582 61.035 20.3043 60.74 20.3043 60.3378C20.3043 59.5534 19.7235 59.1612 18.5618 59.1612H16.2182V61.5042H18.5618Z" fill="black"/>
<path d="M22.9112 55.2797H23.9301V62.3188H22.9112V55.2797Z" fill="black"/>
<path d="M27.482 56.1545H25.0364V55.2797H30.9363V56.1545H28.4908V62.3188H27.482V56.1545Z" fill="black"/>
<path d="M35.1665 62.3992C34.4465 62.3992 33.7977 62.245 33.2203 61.9366C32.6429 61.6216 32.1877 61.1892 31.8549 60.6394C31.5288 60.0897 31.3658 59.4763 31.3658 58.7992C31.3658 58.1221 31.5288 57.5087 31.8549 56.959C32.1877 56.4093 32.6429 55.9802 33.2203 55.6718C33.7977 55.3568 34.4465 55.1992 35.1665 55.1992C35.8798 55.1992 36.5252 55.3568 37.1026 55.6718C37.68 55.9802 38.1318 56.4093 38.4578 56.959C38.7839 57.502 38.9469 58.1154 38.9469 58.7992C38.9469 59.483 38.7839 60.0998 38.4578 60.6495C38.1318 61.1925 37.68 61.6216 37.1026 61.9366C36.5252 62.245 35.8798 62.3992 35.1665 62.3992ZM35.1665 61.5042C35.6896 61.5042 36.1583 61.3869 36.5727 61.1523C36.9939 60.9177 37.3234 60.5959 37.5611 60.1869C37.8057 59.7713 37.928 59.3087 37.928 58.7992C37.928 58.2897 37.8057 57.8305 37.5611 57.4216C37.3234 57.0059 36.9939 56.6808 36.5727 56.4461C36.1583 56.2115 35.6896 56.0942 35.1665 56.0942C34.6435 56.0942 34.1679 56.2115 33.74 56.4461C33.3188 56.6808 32.9859 57.0059 32.7414 57.4216C32.5036 57.8305 32.3847 58.2897 32.3847 58.7992C32.3847 59.3087 32.5036 59.7713 32.7414 60.1869C32.9859 60.5959 33.3188 60.9177 33.74 61.1523C34.1679 61.3869 34.6435 61.5042 35.1665 61.5042Z" fill="black"/>
<path d="M43.7243 62.3992C43.0042 62.3992 42.3555 62.245 41.7781 61.9366C41.2007 61.6216 40.7455 61.1892 40.4127 60.6394C40.0866 60.0897 39.9236 59.4763 39.9236 58.7992C39.9236 58.1221 40.0866 57.5087 40.4127 56.959C40.7455 56.4093 41.2007 55.9802 41.7781 55.6718C42.3555 55.3568 43.0042 55.1992 43.7243 55.1992C44.4376 55.1992 45.083 55.3568 45.6604 55.6718C46.2378 55.9802 46.6895 56.4093 47.0156 56.959C47.3417 57.502 47.5047 58.1154 47.5047 58.7992C47.5047 59.483 47.3417 60.0998 47.0156 60.6495C46.6895 61.1925 46.2378 61.6216 45.6604 61.9366C45.083 62.245 44.4376 62.3992 43.7243 62.3992ZM43.7243 61.5042C44.2474 61.5042 44.7161 61.3869 45.1305 61.1523C45.5517 60.9177 45.8811 60.5959 46.1189 60.1869C46.3635 59.7713 46.4857 59.3087 46.4857 58.7992C46.4857 58.2897 46.3635 57.8305 46.1189 57.4216C45.8811 57.0059 45.5517 56.6808 45.1305 56.4461C44.7161 56.2115 44.2474 56.0942 43.7243 56.0942C43.2012 56.0942 42.7257 56.2115 42.2978 56.4461C41.8766 56.6808 41.5437 57.0059 41.2992 57.4216C41.0614 57.8305 40.9425 58.2897 40.9425 58.7992C40.9425 59.3087 41.0614 59.7713 41.2992 60.1869C41.5437 60.5959 41.8766 60.9177 42.2978 61.1523C42.7257 61.3869 43.2012 61.5042 43.7243 61.5042Z" fill="black"/>
<path d="M53.8615 58.6685C54.2759 58.7825 54.602 58.9903 54.8397 59.292C55.0775 59.5869 55.1964 59.9623 55.1964 60.4182C55.1964 61.0283 54.962 61.4975 54.4933 61.826C54.0313 62.1545 53.3554 62.3188 52.4655 62.3188H49.0621V55.2797H52.2617C53.0769 55.2797 53.7053 55.4406 54.1468 55.7623C54.5952 56.0841 54.8193 56.5299 54.8193 57.0998C54.8193 57.4685 54.731 57.7869 54.5544 58.0551C54.3846 58.3232 54.1536 58.5277 53.8615 58.6685ZM50.0811 56.0942V58.3467H52.17C52.6931 58.3467 53.0939 58.2529 53.3724 58.0651C53.6577 57.8707 53.8004 57.5892 53.8004 57.2204C53.8004 56.8517 53.6577 56.5735 53.3724 56.3858C53.0939 56.1914 52.6931 56.0942 52.17 56.0942H50.0811ZM52.4248 61.5042C53.0022 61.5042 53.4369 61.4104 53.729 61.2227C54.0211 61.035 54.1672 60.74 54.1672 60.3378C54.1672 59.5534 53.5864 59.1612 52.4248 59.1612H50.0811V61.5042H52.4248Z" fill="black"/>
<path d="M56.7741 55.2797H57.7931V62.3188H56.7741V55.2797Z" fill="black"/>
<path d="M61.3449 56.1545H58.8994V55.2797H64.7992V56.1545H62.3537V62.3188H61.3449V56.1545Z" fill="black"/>
</g>
<defs>
<filter id="filter0_i_1502_6045" x="-0.257235" y="0" width="80.2572" height="82.0579" filterUnits="userSpaceOnUse" color-interpolation-filters="sRGB">
<feFlood flood-opacity="0" result="BackgroundImageFix"/>
<feBlend mode="normal" in="SourceGraphic" in2="BackgroundImageFix" result="shape"/>
<feColorMatrix in="SourceAlpha" type="matrix" values="0 0 0 0 0 0 0 0 0 0 0 0 0 0 0 0 0 0 127 0" result="hardAlpha"/>
<feOffset dx="-0.257235" dy="2.05788"/>
<feGaussianBlur stdDeviation="2.61522"/>
<feComposite in2="hardAlpha" operator="arithmetic" k2="-1" k3="1"/>
<feColorMatrix type="matrix" values="0 0 0 0 0.117647 0 0 0 0 0.203922 0 0 0 0 0.376471 0 0 0 0.2 0"/>
<feBlend mode="normal" in2="shape" result="effect1_innerShadow_1502_6045"/>
</filter>
<linearGradient id="paint0_linear_1502_6045" x1="36.8008" y1="16.8008" x2="36.8008" y2="74.9128" gradientUnits="userSpaceOnUse">
<stop offset="0.135276" stop-color="#005AEC"/>
<stop offset="1" stop-color="#08E8DD"/>
</linearGradient>
<clipPath id="clip0_1502_6045">
<rect width="80" height="80" fill="white"/>
</clipPath>
</defs>
</svg>
